<svg width="500" height="1253" viewBox="0 0 500 1253" fill="none" xmlns="http://www.w3.org/2000/svg">
<path d="M354.7 9.19997C355 14.3 355.6 18.9 356 19.5C356.4 20 357.1 27.1 357.5 35.3C357.9 43.4 358.6 50.2 359 50.5C359.4 50.7 360.1 57.3 360.5 65C360.9 72.7 361.5 79.2 362 79.5C362.4 79.8 363.1 86.8 363.5 95.2C363.9 103.6 364.6 111 365.1 111.6C365.6 112.2 366.5 126.8 367 144.1C367.6 161.4 368.5 175.9 369 176.4C369.6 177 370 179.5 370 182.1C370 184.7 370.5 187.2 371 187.5C371.6 187.9 372 193.2 372 200C372 206.8 371.6 212.1 371 212.5C370.4 212.8 370 217.5 370 223C370 228.4 369.6 233.1 369.2 233.4C368.7 233.7 367.8 241.7 367 251.2C366.3 260.7 365.4 268.9 365 269.5C364.6 270 363.9 274 363.5 278.2C363.1 282.5 362.5 286.2 362 286.5C361.6 286.7 360.9 290.6 360.6 295C360.2 299.4 359.5 303.2 359 303.5C358.6 303.8 357.9 307.1 357.5 311C357.1 314.8 356.5 318 356 318C355.6 318 354.9 321.6 354.6 326C354.2 330.4 353.5 334.2 353 334.5C352.6 334.8 351.9 338.1 351.5 342C351.1 345.9 350.4 349.2 350 349.5C349.6 349.8 348.9 353.3 348.5 357.5C348.1 361.6 347.5 365.2 347 365.5C346.6 365.8 345.9 368.4 345.5 371.3C345.1 374.1 344.4 376.9 344 377.5C343.6 378 342.9 380.7 342.5 383.5C342.1 386.2 341.4 389 341 389.5C340 390.7 340.2 393.6 341.3 394.6C341.7 395 342 393.9 342 392.2C342 390.5 342.5 388.8 343.1 388.4C343.7 388.1 344 386.9 343.7 385.9C343.4 384.9 343.6 383.7 344.1 383.4C344.6 383.1 345 381.8 345 380.5C345 379.2 345.4 377.9 345.9 377.6C346.4 377.3 347.1 374.6 347.5 371.5C347.8 368.5 348.5 365.8 348.9 365.5C349.4 365.3 350.3 359.8 351 353.5C351.7 347.2 352.6 341.7 353.1 341.4C353.6 341.1 354 339.3 354 337.4C354 335.5 354.4 334 354.9 334C355.4 334 356.3 328.8 357 322.5C357.7 316.2 358.6 310.7 359.1 310.4C359.6 310.1 360 308.4 360 306.5C360 304.6 360.5 302.8 361.1 302.4C361.7 302.1 362 300.7 361.7 299.4C361.5 298 361.7 296.7 362.1 296.4C362.6 296.1 363 294 363 291.6C363 289.3 363.4 287 364 286.4C364.5 285.9 365.5 279 366.2 271.2C366.9 263.4 367.8 257 368.2 257C368.6 257 369 254.4 369 251.2C369 248 369.4 245 370 244.4C370.5 243.9 371.5 232.8 372.1 219.7C373.1 201.5 373.1 193.2 372.2 183.7C371.5 177 371 169.1 371 166.2C371 163.4 370.6 161 370 161C369.4 161 369 154.7 369 144.2C369 135 368.6 127 368.1 126.5C367.6 125.9 366.6 115.4 366 103C365.3 90.6 364.4 80 364 79.5C363.5 78.9 362.9 72.5 362.5 65.2C362.1 57.9 361.3 51.7 360.9 51.4C360.4 51.1 360 47.5 360 43.4C360 39.3 359.6 36 359.1 36C358.7 36 358 29.6 357.6 21.7C356.8 5.69997 356.1 -3.02953e-05 354.9 -3.02953e-05C354.5 -3.02953e-05 354.4 4.19997 354.7 9.19997Z" fill="black"/>
<path d="M120.5 299.3C119.4 299.9 117.8 300.6 117 301C114 302.4 114.8 305.8 119.1 309.9C121.4 312.2 123.8 314 124.6 314C125.3 314 126.3 314.6 126.7 315.2C127.1 315.9 128.2 316.9 129.1 317.5C130 318 134 320.7 138.1 323.4L145.5 328.4L152.3 342C156 349.5 159 356.2 159 356.8C159 357.5 159.4 358 159.9 358C160.4 358 161.1 359.2 161.4 360.7C162 363 167 374 172.1 384.2C172.6 385.2 173 386.5 173 387.2C173 387.9 173.7 389.8 174.5 391.3C175.3 392.8 176.2 395.6 176.6 397.5C176.9 399.4 177.6 401 178.1 401C178.5 401 179.2 403 179.6 405.5C179.9 408 180.6 410 181.1 410C181.5 410 182.2 411.6 182.6 413.5C182.9 415.4 183.6 417.3 184.1 417.5C184.5 417.8 184.7 418.7 184.4 419.4C184.1 420.2 184.3 421.1 184.9 421.5C185.5 421.8 186 423.2 186 424.5C186 425.8 186.4 427.1 186.9 427.4C187.3 427.7 188.3 430.8 188.9 434.2C189.6 437.7 190.6 441.3 191.1 442.2C192.4 444.7 192.3 445 189.6 445C188.2 445 186.8 445.4 186.5 446C186.2 446.5 185.1 447 184.2 447C183.2 447 177.4 450.3 171.2 454.4C161.7 460.7 156.8 465 139.2 482.8C127.8 494.4 116.9 505.9 115 508.4C113.1 510.9 109.8 514.7 107.8 516.9C105.7 519 104 521.2 104 521.7C104 522.3 103.1 523.5 101.9 524.6C100.1 526.2 90.3 539.4 87.5 543.9C82.3 552.3 81.6 552.6 74.6 548.2C72.3 546.8 70.9 546.4 71.2 547.2C71.4 547.9 73.3 549.3 75.3 550.3C80 552.7 80.1 555 75.5 560.6C73.6 562.9 72 565.2 72 565.5C72 565.9 68.7 570 64.8 574.6C60.8 579.1 55.9 585 54 587.5C48.4 595 48.2 595.1 44.2 594.4C42.1 594 40 593.3 39.4 592.8C38.7 592.4 31.9 591.8 24.2 591.7C11.7 591.5 10 591.7 8.10001 593.4C5.60001 595.7 5.30001 601.2 7.60001 603.1C8.40001 603.8 9.80001 605.6 10.6 607.2C12.6 611 19.4 615.3 21.7 614.2C22.7 613.7 25 612.6 26.9 611.6L30.3 609.9L35.3 614.7C38 617.3 41.8 621.2 43.8 623.2C45.7 625.3 47.7 627 48.2 627C48.7 627 55.3 632.9 62.8 640.1C70.4 647.4 78.5 654.8 81 656.6C83.5 658.4 86.7 661.2 88.1 662.7C89.6 664.3 92.4 666.7 94.4 668C96.4 669.4 98 670.9 98 671.3C98 671.7 97.1 673.9 96.1 676.1C95 678.3 93.8 681.5 93.4 683.3C93.1 685 92.1 687.5 91.3 688.7C90.3 690.3 89.9 693.5 90 699.7C90.2 716 91.8 721.4 96.4 722.6C99.2 723.3 106.7 720.3 115.2 715.1C118.8 712.9 123 710.8 124.4 710.4C125.8 710.1 127 709.4 127 708.9C127 708.5 128.2 707.4 129.8 706.6C131.3 705.8 133.5 704.6 134.6 703.9C138.4 701.9 141.5 705 143 712.3C143.7 715.7 144.7 718.9 145.1 719.5C145.6 720 146 721.7 146 723.2C146 724.7 146.5 726 147 726C148.4 726 148.2 729.8 146.7 730.7C146.1 731.1 143.9 733.7 142 736.4C140.1 739.1 137.5 742.3 136.3 743.7C135 745 134 746.3 134 746.5C134 746.7 131.4 750.4 128.2 754.7C125 759 119.8 767.9 116.6 774.5C113.4 781.1 110.3 787.4 109.7 788.5C104.6 797.9 103.9 799.7 102.8 808.6C102.2 813.7 101.3 818 100.8 818C99.6 818 99.8 831.8 101 832.5C101.6 832.8 102 836.1 102 839.7C102 848.9 105.5 858.4 109.6 860.5C110.7 861 112.6 862.4 113.8 863.6C115 864.7 117.3 866.3 118.8 867C120.3 867.7 122.3 868.6 123.2 869.1C124.2 869.6 126.8 870 129 870C131.2 870 133 870.4 133 871C133 872.3 138.7 872.3 139.5 871C139.8 870.4 142.1 870 144.5 870C146.9 870 149.1 869.6 149.4 869.2C149.7 868.7 155.3 867.7 162 867C168.6 866.4 174 865.4 174 864.9C174 864.4 175.1 864 176.4 864C177.7 864 179 863.3 179.4 862.5C179.7 861.7 180.6 861 181.5 861C183.2 861 183.5 859.4 182 858.5C181.4 858.1 180.1 858.9 179 860.2C177.2 862.4 177.1 862.5 175.7 860.6C174.9 859.5 173.7 854.8 173 850.1C172.4 845.4 171.5 840.5 171 839.4C170.5 838.2 169.8 833.6 169.5 829.1C169.1 824.7 168.3 821 167.9 821C167.4 821 167 819 167 816.5C167 814 166.5 812 166 812C165.3 812 165.2 810.7 165.6 808.5C165.9 806.5 165.8 804.4 165.2 803.7C164.7 803.1 163.9 798.4 163.5 793.5C163.1 788.5 162.4 784 162 783.5C161.6 782.9 160.9 778.7 160.5 774C160.1 769.3 159.4 765 159 764.5C158.6 763.9 157.9 760.9 157.6 757.8C157.2 754.6 156.5 751.8 156 751.5C155.5 751.2 154.8 748.8 154.4 746.2C154.1 743.6 153.4 741 153 740.5C152.5 739.9 151.9 737.7 151.5 735.5C151.1 733.3 150.3 730.9 149.7 730.2C148.9 729.2 149.9 727.7 153.6 724L158.5 719.1L167.5 724.9C172.5 728.2 177.2 731.4 178.1 732.2C178.9 732.9 181.2 734.4 183.1 735.4C185 736.5 188.1 738.5 190 740C191.9 741.5 196 744 199 745.7C202 747.4 206.7 749.9 209.3 751.4C212 752.9 214.7 753.9 215.3 753.7C216 753.4 214.7 752.5 212.5 751.5C210.3 750.6 207.6 749 206.5 748.1C205.4 747.1 202.9 745.7 201 745C199.1 744.2 195.9 742.4 193.9 740.8C191.9 739.3 189.7 738 189.1 738C186.8 738 188.1 736.3 191.3 735.3C197.4 733.4 216.7 719.7 219 715.5C221.2 711.5 223 711.2 223 714.9C223 716.5 223.4 718.1 223.9 718.4C224.3 718.7 225.1 723.5 225.4 729C225.8 734.5 226.6 739 227.1 739C227.6 739 228 740.7 228 742.8C228 744.9 229 748.4 230.1 750.5C236.7 762.9 237.1 764.3 232.7 762.3C231.5 761.7 228.3 760.2 225.5 758.9C222.8 757.7 220.2 756.2 219.7 755.6C218.9 754.4 219.8 747.6 221.1 744.8C221.6 743.8 222.5 742.1 223 741C224.6 737.9 225.5 729.5 224.3 730.3C223.7 730.7 223 732.2 222.7 733.7C221.4 740.2 218.6 749.7 217.4 752.2C216.6 753.6 216 756 216 757.4C216 758.8 215.6 760 215.1 760C214.6 760 214 762.2 213.6 765C213.2 767.7 212.6 770.2 212.1 770.4C211.6 770.7 210.9 773 210.6 775.5C210.2 778 209.2 781.2 208.4 782.8C207.7 784.3 207 786.6 207 788C207 789.5 206.6 791 206.1 791.5C205.5 792.1 204.5 795.5 203.8 799.2C203.1 803 202.2 806 201.8 806C201.3 806 201 806.7 201 807.5C201 808.3 200.6 809.8 200 810.8C199.1 812.4 196.8 820.1 196.5 822.5C196.3 824.2 194 832.4 193.1 834.5C192.6 835.6 191.5 838.1 190.6 840.2C189.7 842.2 189 844.8 189 846C189 847.2 187.4 850.2 185.4 852.6C181.8 856.9 181.8 857.1 183.5 859C184.8 860.4 185 861.3 184.3 862.2C183.7 862.9 182.9 865.1 182.5 867C182.1 868.9 181.4 870.9 181 871.5C180.6 872 179.9 874.1 179.5 876C179.1 877.9 178.4 880.1 177.9 881C177.3 882.2 176.3 884.7 175.5 887C175.4 887.3 174.8 888.8 174.2 890.3C173.5 891.9 173 894.3 173 895.7C173 897.8 173.2 898.1 174.5 897C176.3 895.5 176.5 893 174.8 893C173.9 893 173.9 892.7 174.6 892.2C176.1 891.2 178.7 885.1 179.4 880.6C179.8 878.5 180.5 876 181 875.1C182 873.3 183.3 869.9 183.4 868.8C183.5 868.5 183.8 867.8 184.3 867.4C184.7 867 185 865.6 185 864.3C185 863.1 185.4 862 185.9 862C186.4 862 186.6 861.2 186.3 860.1C186 858.7 186.5 858.1 188.5 857.6C190 857.2 192.9 855.8 195 854.5C197.1 853.2 200 851.8 201.4 851.4C202.8 851.1 204 850.4 204 850C204 849.6 205.2 848.9 206.6 848.6C208 848.2 210.1 846.9 211.3 845.6C212.5 844.4 214.2 843.1 215 842.7C215.8 842.3 217.6 841.2 218.9 840.3C221.2 838.6 221.3 838.6 220.3 840.5C219.7 841.6 216.6 845.4 213.3 849C210.1 852.6 206.3 857.1 204.8 859C202.6 862 198.4 866.8 186.3 880.5C180.7 886.7 176 893 176.8 893C177.8 893 182 888.3 182 887.2C182 886.7 183.7 884.8 185.8 882.9C187.8 881 192.4 875.9 196 871.5C199.6 867.2 204 862.2 205.8 860.3C207.5 858.4 209 856.6 209 856.2C209 855.7 213.6 850.4 222 841.2C223.7 839.4 225 837.5 225 837.1C225 836.1 232.3 830 233.4 830C234.2 830 240.1 825.9 241.5 824.4C242 823.8 244 822.4 245.9 821.4C247.8 820.3 251.2 817.6 253.5 815.2C255.8 812.9 258.1 811 258.6 811C259.1 811 262.9 807.6 267.1 803.4C273.8 796.8 275 796 277.3 796.5C278.8 796.9 280 797.6 280 798.1C280 798.6 281.8 799.3 284 799.6C286.2 800 288.3 800.6 288.5 801.1C288.8 801.5 291.2 802.2 293.8 802.6C296.4 802.9 299.1 803.7 299.8 804.3C300.5 804.9 303.3 805.4 306 805.4C310.7 805.5 310.8 805.6 311.4 809C311.7 810.9 312 815.2 312 818.5C312 821.9 312.4 825 313 825.6C313.5 826.1 314.3 834.4 314.6 844C315 853.6 315.6 861.9 316 862.5C316.4 863 317.1 874.7 317.5 888.5C317.8 902.2 318.5 913.7 318.9 914C320.2 914.8 321.1 947.2 321.6 1012.5C321.9 1050.3 322.4 1074.8 323 1075.4C323.6 1076 324 1082.1 324 1089.1C324 1096.1 324.4 1102.1 324.8 1102.4C325.3 1102.7 326 1135.9 326.3 1176.2C326.6 1216.5 327.1 1250.3 327.5 1251.2C327.9 1252.2 328.9 1253 329.7 1253C330.9 1253 331 1252.7 330.2 1251.7C328.8 1250.1 328.3 1231.9 327.1 1153C325.9 1072 324.9 1032 323.8 1031.4C322.6 1030.6 322.8 1011.6 324.1 1010.3C324.7 1009.7 324.9 1004.1 324.5 993.9C324.2 985.4 323.7 969.3 323.4 958.1C323.2 946.8 322.5 937.1 322.1 936.6C321.6 936 320.9 926.3 320.6 915C320.2 903.7 319.5 892.5 319 890C318.5 887.5 317.6 872.2 317 856C316.4 839.6 315.5 826.1 315 825.6C314.4 825 314 821.6 314 817.9C314 814.2 313.6 810.8 313 810.5C311.4 809.5 311.8 804 313.5 803.3C315.9 802.5 318.9 795.3 320.2 787.7C320.9 784 321.8 781 322.2 781C323.3 781 323.2 771.6 322.1 770.5C321.6 769.9 321 766 320.6 761.7L320 754L323.8 749.7C325.8 747.4 327.8 745.3 328.2 745.2C328.7 745 329 744.2 329 743.5C329 742.7 329.8 741.5 330.8 740.8C332.3 739.6 342.1 728.4 348.5 720.5C349.8 718.8 352.5 715.6 354.5 713.4C356.4 711.1 358 709 358 708.6C358 708.2 359.7 705.8 361.8 703.1C363.8 700.4 366.3 697 367.2 695.4C370.5 690 382.6 671.8 383.9 670.3C384.5 669.6 385 668.9 385 668.6C385 668.3 386.4 666.1 388 663.6C390.1 660.6 392 658.9 394 658.5C395.6 658.1 397.3 657.3 397.7 656.7C398.2 656 400 654.7 401.8 653.7C405.2 651.7 411 646.6 411 645.4C411 645 412.8 642.6 415.1 640.1C417.3 637.6 419.7 634.8 420.4 634C421.1 633.2 425.3 625.3 429.7 616.4C439.4 596.8 441.3 593.6 446.1 588.5C453.5 580.7 459 574.3 459 573.4C459 573 460.3 571.2 461.9 569.5C465 566.3 474 553.5 474 552.5C474 552.1 475.3 550.1 477 548C478.6 545.9 480 543.8 480 543.2C480 542.6 480.4 542 480.9 541.8C482 541.4 489 532.2 489 531.2C489 530.1 482.1 531 481.4 532.1C481.1 532.6 479.4 533 477.5 533C475.6 533 473.9 533.4 473.6 533.9C473.3 534.4 469.4 535.3 465 536C460.6 536.7 456.7 537.6 456.4 538.1C456.1 538.6 455.1 539 454.1 539C452.5 539 452.4 538.3 452.8 533.7C453 530.9 453.6 528.1 454.1 527.6C454.6 527 455 524.5 455 521.9C455 519.3 455.5 516.8 456 516.5C456.6 516.2 457 513.2 457 510C457 506.8 456.6 503.8 456 503.5C455.5 503.2 455 499.8 455 496C455 492.2 454.6 488.8 454 488.5C453.5 488.2 453 486.2 453 484.2C453 482.2 451.9 478.2 450.5 475.5C449.2 472.7 448 469.9 448 469.2C448 468.6 447.7 468 447.2 468C446.4 468 442 458.9 442 457.1C442 456.5 441.7 456 441.3 456C440.8 456 439.4 453.5 438.1 450.5C436.4 446.7 433.8 443.4 429.4 439.5C426 436.5 422.7 434 422.1 434C421.5 434 420.3 432.9 419.5 431.6C417 427.9 402.9 419 399.3 419C398.7 419 398 418.7 397.8 418.2C397.7 417.8 395.4 416.5 392.8 415.2C388.5 413.1 386.5 411 388.9 411C389.4 411 390.1 409.3 390.5 407.2C390.9 405.2 391.5 403 392 402.5C393.3 400.7 393.9 394.3 392.8 393.2C391.3 391.7 387.1 394.8 383.4 400.2C381.8 402.6 378.6 406.8 376.3 409.6C373.9 412.4 372 415.1 372 415.5C372 416 370.9 417.8 369.5 419.6C368.1 421.4 367 423.3 367 423.8C367 424.3 366.1 425.8 365.1 427.1C362.7 430.2 359.3 435.8 357.9 439C357.4 440.4 356.1 442.4 355.1 443.5C354.1 444.6 352.2 447.7 350.8 450.5C349.4 453.2 346.2 459.5 343.6 464.3C341.1 469.1 339 474 339 475C339 476.1 338.6 477 338.2 477C337.8 477 336.8 478.7 336.1 480.7C335.3 482.8 333.9 485.7 332.9 487.2C331.8 488.6 331 490.3 331 491C331 491.6 329.8 494.6 328.4 497.6C325.9 502.8 325.8 506 328 506C328.5 506 329 505.3 329 504.5C329 503.7 329.9 502.6 331 502C332.1 501.4 333 500.5 333 499.9C333 499.3 334.9 496.5 337.2 493.7C341.5 488.6 343.4 485.8 344.7 483.1C345 482.4 346.3 480.7 347.4 479.5C348.6 478.2 350.2 475.9 351 474.3C351.8 472.8 353.3 470.9 354.3 470.2C355.2 469.5 356 468.3 356 467.6C356 466.9 357.6 464.5 359.5 462.3C361.4 460 363 457.9 363 457.6C363 456.9 367 450.9 368.1 450C368.4 449.7 369.9 447 371.4 444C372.9 441 375 436.9 376.2 435C378 432 381.6 425.5 386.4 416.4C387.5 414.3 387.6 414.3 395 418C410.9 426 413 427.4 423.8 436.7C427.8 440.2 431.5 443 432 443C433 443 438 452.9 438 454.8C438 455.4 438.3 456 438.8 456.2C439.2 456.3 442.3 462.1 445.7 469C451.7 481.1 452 481.8 453 493C454.5 508.2 454.5 513.3 452.7 527C451.9 533.3 451.1 538.6 451.1 538.7C450.7 539.5 443.7 542 440.3 542.5C437.9 542.9 435.8 543.5 435.5 544C435.2 544.4 433 545.1 430.5 545.4C428.1 545.8 425.8 546.5 425.5 547.1C425.1 547.6 423.7 548 422.2 548C420.7 548 418.4 548.6 417 549.3C415.6 550.1 412.9 551 411.1 551.3C408.1 551.9 407.1 551.5 402.4 547.5C399.5 545 395.7 542.4 394 541.6C391.1 540.4 391 540.2 392.4 538.7C393.3 537.9 394.5 537 395.2 536.7C395.9 536.5 396.2 535.9 395.8 535.5C395.4 535.1 393.3 535.7 391 536.8C388.8 537.9 386.8 538.4 386.5 538C386.2 537.5 382.5 536.9 378.2 536.5C374 536.1 370.1 535.5 369.6 535.2C366.9 533.6 347.2 532.6 343 533.9C341.1 534.4 333.8 535.2 326.8 535.5L314.1 536L315.5 533.3C316.3 531.7 317 529.8 317 529C317 528.2 317.7 526.6 318.5 525.6C319.3 524.5 320 522.9 320 522.1C320 521.2 320.7 519.2 321.5 517.6C322.3 516.1 323 514.1 323 513.4C323 512.6 323.3 512 323.8 512C324.8 512 327 506.9 326.4 505.9C325.5 504.5 324 504.9 324 506.5C324 508.7 322.1 511.8 316.8 518.1C314.1 521.2 312 524.2 312 524.6C311.9 525.1 310.4 527.3 308.5 529.4C305.5 532.8 305 533 305 531.2C305 530.1 305.5 528.8 306 528.5C306.6 528.1 307 527.1 306.9 526.2C306.7 523.8 308.1 518 309 518C309.3 518 310.2 514.3 310.9 509.9C311.6 505.4 312.6 500.9 313.1 499.9C313.6 498.8 314.4 497.2 314.9 496.1C315.4 495.1 316.2 492.1 316.5 489.4C316.9 486.7 317.6 484 318 483.5C318.4 482.9 318.8 481.8 318.8 481C319.1 478 321.6 468.1 322.3 467.4C322.7 467 323 465.6 323 464.4C323 463.1 323.4 461.9 323.8 461.6C324.3 461.3 325.2 457.8 325.9 453.8C326.7 449.8 327.6 446 328 445.5C328.5 444.9 329.1 442.2 329.5 439.5C329.9 436.7 330.6 434 331 433.5C331.4 432.9 332.1 430.7 332.5 428.5C332.9 426.3 333.5 424 334 423.5C334.4 422.9 335.1 420.2 335.5 417.5C335.9 414.7 336.5 412 337 411.5C337.4 410.9 338 408.5 338.4 406.1C338.8 403.7 339.5 400.9 340.1 399.9C341.1 397.9 345.4 397.3 346.4 398.9C346.8 399.4 348.8 400.1 351 400.5C353.2 400.9 355.2 401.5 355.5 402C355.8 402.4 358.1 403.1 360.6 403.5C365.4 404.2 365.9 404.4 371.9 407.4C373.7 408.3 375.5 408.8 375.8 408.5C376.9 407.5 372.7 405.4 365.1 403.1C355.7 400.2 349.1 398 346.5 397C345.4 396.5 342.9 395.8 341 395.5C336.9 394.8 328.3 392.2 325.8 390.9C324.8 390.4 321.1 389.5 317.5 388.8C313.9 388.1 311 387.2 311 386.8C311 386.3 310 386 308.8 386C307.5 386 305.2 385.3 303.6 384.5C302.1 383.7 300.1 383 299.2 383C297.7 383 286.8 379.7 282.5 378C277.8 376.1 276.4 375.7 275.2 375.9C274.4 376 273.3 375.7 272.7 375.2C272 374.6 269.8 373.9 267.7 373.5C265.7 373.1 263.8 372.4 263.5 372C263.2 371.5 261.2 370.9 259 370.5C256.8 370.1 254.8 369.4 254.5 368.9C254.2 368.5 251.7 367.8 249 367.4C246.2 367 244 366.4 244 365.9C244 365.5 242 364.8 239.5 364.4C237 364.1 235 363.4 235 363C235 362.6 233.4 361.9 231.5 361.6C229.6 361.2 226.8 360.3 225.3 359.5C223.8 358.7 221.9 358 221.2 358C220.5 358 219.2 357.6 218.2 357.1C212.7 354.4 209.2 353 206.5 352.4C204.9 352 203 351.4 202.5 350.9C201.9 350.5 199.2 349.6 196.5 348.9C193.7 348.2 190.4 346.9 189 346C187.6 345 184.9 343.9 183 343.5C181.1 343.1 176.7 341.5 173.2 339.9C169.7 338.3 166.4 337 165.9 337C165.4 337 165 336.6 165 336.1C165 335.6 163.9 334.9 162.5 334.6C155.2 332.8 142 323 142 319.4C142 319 140 316.3 137.5 313.4C135 310.6 133 307.8 133 307.3C133 306.2 127.4 301.1 124.4 299.4C123.1 298.6 121.9 298.6 120.5 299.3ZM124 300.8C124 301.2 125 302 126.2 302.5C127.4 303.1 130.3 306 132.5 309.1C134.7 312.2 138 316.6 139.8 319C141.5 321.4 143 323.7 143 324.2C143 325.2 139 322.8 133.3 318.3C131 316.5 128.9 315 128.5 315C128.1 315 126.1 313.6 124 312C121.9 310.3 119.8 309 119.2 309C118.2 309 116.4 303.1 117.2 302.6C118 302 122.6 300.1 123.3 300.1C123.7 300 124 300.3 124 300.8ZM156 333.2C159.6 335 162.7 336.8 162.8 337.2C163 337.6 163.7 338 164.3 338C165.3 338 169.2 339.6 177.5 343.5C179.2 344.3 181.8 345.2 183.4 345.6C185 346 187.5 346.9 188.9 347.6C190.3 348.4 192.1 349 192.8 349C193.5 349 194.8 349.4 195.8 349.9C201.2 352.5 204.8 354 207.4 354.6C209 355 211.5 355.9 212.9 356.6C214.3 357.4 216.3 358 217.3 358C218.2 358 219 358.4 219 359C219 359.5 220 360 221.3 360C222.5 360 224.4 360.6 225.5 361.4C226.6 362.1 230 363.3 233 364C236 364.7 239.2 365.6 240 366C244.2 368.1 247 369 252.2 370C255.4 370.6 258.2 371.5 258.5 372C258.8 372.4 260.6 373.1 262.6 373.5C264.6 373.8 267 374.5 267.9 375C271.6 376.8 274.8 377.9 280.5 379C283.7 379.7 287.1 380.6 288 381C290 382.1 293.5 383.2 293.6 382.8C293.6 382.6 294.3 383 295.1 383.6C295.9 384.2 298.6 385.1 301.2 385.4C303.8 385.8 306.2 386.5 306.5 387C306.8 387.5 309.1 388.2 311.7 388.6C314.2 389 317.5 389.9 318.9 390.6C320.3 391.4 322.5 392 323.8 392C325 392 326 392.4 326 392.9C326 393.4 328.1 394 330.8 394.4C336.4 395.2 339.8 397.3 338.3 399.2C337.7 399.9 336.7 404.1 336 408.5C335.3 412.9 334.3 416.9 333.9 417.5C333.4 418 333 419.4 333 420.6C333 421.9 332.6 423.1 332.1 423.5C331.5 423.8 330.8 426.2 330.4 428.8C330.1 431.4 329.4 433.9 329 434.5C328.6 435 327.7 438.9 327 443C326.3 447.1 325.4 451.2 324.9 452.2C324.4 453.2 323.6 454.8 323.1 455.9C322.6 456.9 321.6 461.4 320.9 465.9C320.2 470.3 319.3 474 318.9 474C318.4 474 317.8 476.2 317.4 479C317 481.7 316.4 484 316 484C315.5 484 314.9 486.7 314.5 490C314.1 493.3 313.4 496 313 496C312.6 496 311.9 498.2 311.5 501C311.1 503.7 310.4 506.2 310 506.5C309.6 506.8 308.9 509.4 308.5 512.3C308.1 515.1 307.4 517.9 307 518.5C306.3 519.4 305.4 522.7 302.8 534.1C301.7 539.1 300.2 540 292.9 540C291.4 540 289.9 540.4 289.6 540.9C289.3 541.3 286.3 542 282.9 542.4C279.5 542.7 276.2 543.4 275.6 543.9C275 544.4 272.3 545.1 269.5 545.5C266.8 545.9 264 546.6 263.5 547.1C262.9 547.5 260.2 548.2 257.5 548.5C252.7 549.1 252.5 549.1 251.3 546.3C250.7 544.8 249.9 538.8 249.5 533C249.1 527.2 248.4 522 248 521.5C247.6 520.9 247 516.2 246.6 511C246.2 505.8 245.5 501.1 245.1 500.5C244.6 500 243.9 497.9 243.5 496C243.1 494.1 242.4 492 242 491.5C241.6 490.9 240.9 488.5 240.5 486C240.1 483.5 239.5 481 239.1 480.5C238.8 479.9 238.5 479.3 238.4 479C238.3 478.2 236.9 474.8 235.4 471.3C234.6 469.6 234 467.9 234 467.6C234 467.3 233.1 466 231.9 464.8C228.6 461.1 222 452.1 222 451.3C222 449.8 207.2 442 204.5 442C203.7 442 203 442.4 203 443C203 443.5 201 444 198.6 444C194.2 444 191.7 442.4 192.1 439.8C192.3 438.5 191.5 435.7 190 432.9C189.5 432 188.9 429.5 188.5 427.4C187.8 423.3 185.7 416.5 183.5 411.5C180.5 404.6 180 403.3 179 399C177.6 393.5 175.8 389 174.8 389C174.5 389 173.9 387.1 173.5 384.8C172.8 380.6 170.2 374.7 166.9 370C166 368.6 164.7 365.5 164 363C163.3 360.5 162.5 358.3 162.1 358C161.6 357.6 149.4 333.8 148.2 330.8C147.6 329.4 149.3 329.9 156 333.2ZM391.4 397.7C391 399.8 390.4 401.9 390 402.5C389.6 403 388.9 405.1 388.5 407C387.2 413.3 386.8 413.4 379.1 409.3C378.9 409.2 380.2 407.2 381.9 404.8C383.6 402.4 385.8 399.3 386.7 397.8C387.7 396.3 389.2 394.9 390 394.6C390.8 394.4 391.6 394.2 391.8 394.1C392 394.1 391.8 395.7 391.4 397.7ZM382 412.1C382 412.6 382.7 413 383.5 413C385.5 413 385.4 414.8 383 419.5C381.9 421.7 381 424 381 424.7C381 425.3 380.2 426.5 379.2 427.2C378.1 427.9 376.8 430.2 376.1 432.2C375.4 434.2 374.2 436.4 373.4 437C372.7 437.7 372 438.9 372 439.6C372 440.4 371.7 441 371.3 441C370.8 441 369.6 442.9 368.5 445.3C367.5 447.6 365.3 451.1 363.8 453.1C362.3 455.1 361 457.2 361 457.7C361 458.3 360.1 459.5 359 460.5C357.9 461.5 357 462.9 357 463.5C357 464.2 356.4 465 355.7 465.3C355 465.5 353.4 467.8 352.2 470.4C350.9 472.9 349.5 475 349 475C348.6 475 348 475.8 347.6 476.7C347.3 477.7 345.5 480.5 343.5 483C341.6 485.5 339.4 488.4 338.6 489.5C337.7 490.6 336 492.8 334.7 494.5C333.5 496.1 331.6 498.7 330.7 500.2C329.7 501.8 328.5 503 328 503C327.4 503 328.1 501.2 329.4 499.1C330.8 496.9 332.2 494 332.6 492.5C333 491 335 486.5 337.1 482.5C339.3 478.5 341 474.6 341 473.8C341 473.1 341.7 471.1 342.6 469.5C343.5 467.8 346 463.1 348.2 459C350.3 454.9 353.2 449.7 354.6 447.5C355.9 445.3 357.3 442.8 357.7 442C358 441.2 359.3 439.2 360.4 437.5C361.6 435.9 363 433.6 363.6 432.5C367 426.2 369.4 422.3 370.6 420.9C371.4 420.1 372 418.8 372 418.2C372 417.6 373.4 415.5 375 413.6C377.1 411.2 378.6 410.4 380 410.7C381.1 411 382 411.6 382 412.1ZM213.2 447.2C217 449 220 451 220 451.7C220 452.3 221.1 453.7 222.5 454.8C223.9 455.9 225 457 225 457.3C225 458 229.9 465.3 230.8 466C232.2 467 234.8 472.6 235.5 476C235.9 477.9 236.6 480.1 237 481C239.7 486.4 240.2 488 239.7 489.4C239.4 490.2 239.5 491.2 240 491.5C240.6 491.9 241 493 241 494C241 495 241.4 496 241.9 496.2C243 496.5 245 510 245 516.6C245 519 245.5 521 246 521C246.6 521 247 523.6 247 526.8C247 530 247.4 533 247.9 533.5C248.4 534.1 249 538.1 249.4 542.6L250 550.6L244.3 551.7C234.3 553.6 228.6 555 226.8 556C224.4 557.4 221.4 557.2 220.2 555.7C219.7 555.1 218.9 551.3 218.5 547.5C218.1 543.6 217.5 540 217 539.5C216.6 538.9 215.9 535 215.5 530.7C215.1 526.5 214.4 523 213.9 523C213.4 523 213 521.7 213 520.1C213 518.4 212.5 516.8 212 516.5C211.4 516.2 211.3 514.8 211.6 513.4C211.9 512.1 211.8 510.4 211.2 509.7C210.7 509.1 209.9 506.2 209.5 503.5C209.1 500.7 208.5 498 208 497.5C207.6 496.9 206.9 493.9 206.6 490.8C206.2 487.6 205.5 484.8 205 484.5C204.6 484.3 203.9 481.6 203.5 478.5C203.2 475.5 202.5 472.8 202 472.5C201.6 472.2 200.9 470.2 200.5 468C200.1 465.8 199.4 463.8 198.9 463.4C198.4 463.1 198 461.7 198 460.3C198 458.9 197.4 456.4 196.6 454.7C195.8 452.9 194.9 450.6 194.7 449.5C194.4 448.4 194.4 449.5 194.6 451.9C194.8 454.3 195.4 456.8 196 457.4C196.5 458.1 196.9 459.5 196.9 460.5C196.9 463.7 199.3 472 200.2 472C200.6 472 201 473.3 201 474.9C201 476.6 201.4 478.1 201.9 478.4C202.4 478.7 203.3 482.7 203.9 487.2C204.6 491.8 205.5 496.4 206 497.5C207 499.9 208.7 507.2 210.2 515.5C210.7 518.8 211.6 522 212 522.5C212.5 523.1 213.2 527 213.6 531.3C214 535.5 214.6 539 215.1 539C215.5 539 216.1 542.4 216.5 546.5C216.9 550.6 217.6 554.3 218.1 554.6C220.2 555.9 218.9 558 216.1 558C214.4 558 212.9 558.4 212.6 558.9C212.3 559.4 209 560.1 205.3 560.5C201.5 560.9 197.9 561.7 197.3 562.2C196.6 562.8 195.4 563 194.5 562.7C193.7 562.3 192.8 562.5 192.5 563C192.1 563.6 190.4 564 188.5 564C186.6 564 184.9 564.4 184.6 564.9C184.2 565.4 179.9 566.4 175 567.1C170 567.7 165.7 568.7 165.4 569.1C165.1 569.6 161.3 570 156.9 570C152.3 570 149 570.4 149 571C149 571.5 150.7 572 152.8 572C155.5 572 159.3 573.6 166.7 577.8C177 583.5 178.7 585 175.1 585C174 585 172.8 585.4 172.5 586C172.2 586.5 171.3 587 170.7 587C170 587 170.3 586.3 171.3 585.6C172.2 584.9 173 584 173 583.6C173 582.5 169.5 582.9 168.2 584.2C167.6 584.8 166.7 585 166.3 584.6C165.9 584.2 166.2 583.4 167 582.9C168.1 582.1 167.2 582 164 582.4C161.4 582.7 160.3 582.6 161.4 582.1C162.9 581.5 163 581.2 161.9 580.8C160.2 580.2 154.7 582.3 155.6 583.2C155.9 583.6 156.8 583.6 157.5 583.4C158.2 583.1 159.1 583.3 159.5 583.9C159.8 584.5 161.4 585 163.1 585C164.7 585 166 585.4 166 585.8C166 587.2 176.2 589.1 179.7 588.4C181.6 588 183 588.2 183.5 589C184.5 590.6 183.2 591.6 181.8 590.2C180.4 588.8 179 588.6 179 589.9C179 590.4 180 591.1 181.3 591.5C182.5 591.9 183.7 592.3 184 592.4C184.3 592.6 185.9 593 187.5 593.5C189.2 593.9 190.8 594.8 191.2 595.3C192 596.6 203.4 597.4 202.6 596.1C202.3 595.7 199.7 595 196.9 594.6C191.6 593.9 187 591.6 187 589.6C187 588.8 187.2 588.8 187.8 589.7C188.2 590.3 190.3 591.1 192.5 591.5C194.7 591.9 198.3 593.1 200.5 594C202.7 595 205.2 596 206 596.3C207.1 596.7 207 596.9 205.6 596.9C204.6 597 203.2 597.8 202.5 598.7C201.3 600.4 201 600.4 197.6 598.7C195.3 597.6 194.1 597.5 194.3 598.2C194.6 599.9 188.1 600.9 176.9 600.9C167.6 601 167.3 600.9 164.5 598C162.9 596.3 161 595 160.3 595C159.6 595 159 594.6 159 594.1C159 593.3 155.3 590.3 145.7 583.2C143.9 581.9 142.5 580.3 142.5 579.7C142.5 578.4 138.9 576.1 137.8 576.7C137 577.1 152.3 591 153.5 591C154.8 591 165 600.4 165 601.6C165 603.1 123.2 604.6 114 603.4C107.9 602.5 107.6 602.3 105.5 598.5C104.4 596.3 102.8 592.9 102 591C101.2 589.1 100.4 587.3 100.1 587C99 586.1 96 580.6 92.8 574C91.1 570.4 89.4 567.3 89.1 567C88.8 566.7 87.9 565.4 87.2 564.1C86.4 562.8 84.9 560.2 83.9 558.2C81.8 554.6 82 553 84.2 554.7C84.9 555.3 87.3 556.3 89.5 556.9C94 558.3 97.3 559.6 101.2 561.6C102.6 562.4 104.7 563 105.7 563C106.7 563 108.4 563.6 109.5 564.4C110.6 565.1 113.1 566.1 115 566.5C116.9 566.9 119.1 567.6 120 568.1C123.4 569.9 128.7 571.9 132 572.6C133.9 572.9 136.4 573.9 137.5 574.6C138.6 575.4 140.2 576 141.2 576C142.2 576 143 576.4 143 577C143 577.5 144 578.1 145.3 578.1L147.5 578.3L145.3 578.7C144 578.9 143 579.6 143 580.1C143 581.4 149.4 581.2 150.8 579.8C151.4 579.2 152.3 579 152.7 579.4C153.1 579.8 152.8 580.5 152 581C150.7 581.9 150.7 582 152 582C154.6 582 158 580.8 158 579.9C158 579.4 156.9 579 155.5 579C154.1 579 153 578.5 153 577.9C153 577.2 152 577 150.5 577.4C149.1 577.8 148 577.6 148 577C148 576.5 147 576 145.7 576C144.4 576 143 575.6 142.4 575.1C141.9 574.6 139.7 573.7 137.5 573.1C135.3 572.4 132.5 571.4 131.3 570.9C130 570.4 128 569.6 126.8 569.1C125.5 568.6 122.7 567.6 120.5 567C118.3 566.4 114.1 564.7 111.2 563.4C108.3 562.1 105.4 561 104.7 561C104 561 102.6 560.4 101.5 559.6C100.4 558.9 98 557.9 96.1 557.5C92.6 556.8 84 553.2 84 552.5C84 551.6 88.6 544.2 91.2 541C95.9 535.3 96 535.1 96 534.4C96 534.1 98.2 531.2 101 528C103.7 524.8 106 521.8 106 521.3C106 520.8 107.4 519.1 109.1 517.4C110.8 515.8 114 512 116.3 509C120.8 503 161 462 162.4 462C162.8 462 164.9 460.6 167 459C169.1 457.3 171.1 456 171.5 456C171.9 456 173.9 454.7 175.9 453.1C178 451.5 180.9 449.8 182.6 449.4C184.2 449 186 448.4 186.5 447.9C187.1 447.5 190.8 446.8 194.8 446.5C198.8 446.1 202.3 445.3 202.6 444.9C203.5 443.3 206.3 443.9 213.2 447.2ZM320.3 517.8C320 519 319.4 520 319 520C318.6 520 317.9 521.6 317.6 523.5C317.2 525.4 316.5 527 316 527C315.4 527 315 527.9 315 529.1C315 532.5 311.8 537 309.3 537C308.1 537 306.8 537.4 306.5 538C305.7 539.2 304 539.3 304 538.1C304 537.6 305.5 535.4 307.3 533.1C309 530.9 312.8 526 315.5 522.2C318.3 518.4 320.6 515.3 320.7 515.4C320.8 515.5 320.7 516.6 320.3 517.8ZM485 533.4C485 534.5 482.1 539.1 478.8 543.1C476.7 545.6 475 548.1 475 548.6C475 549.1 473.7 551.1 472.2 553C470.6 554.9 468.7 557.6 468 559C466.4 562.2 460 570.5 453.5 577.8C450.8 580.9 447 585.3 445.3 587.5C443.1 590.1 442 590.9 442 589.8C442 586.8 444.2 577.5 445.1 576.6C445.6 576 446 574.3 446 572.8C446 571.3 446.4 570 446.8 570C447.8 570 450.3 555.1 450.1 550.3C450 548.6 450.4 546.9 451 546.5C451.5 546.2 452 544.8 452 543.4C452 541.7 452.5 541 453.9 541C455 541 456.1 540.6 456.4 540.1C456.8 539.6 459.3 538.9 462 538.5C464.7 538.1 467.2 537.4 467.5 537C467.8 536.5 470.9 535.8 474.5 535.5C478.1 535.1 481.3 534.4 481.6 533.9C482.1 533 485 532.6 485 533.4ZM370.3 536.7C370.9 537.3 374.1 538 377.4 538.4C380.6 538.8 383.7 539.3 384.2 539.6C385.1 540.2 380.8 543 371.8 547.7C370.2 548.5 369 549.5 369 550C369 550.5 367.7 551.1 366 551.5C364.4 551.9 363 552.6 363 553.2C363 553.8 362.4 553.8 361.5 553C360.3 552 359.7 552 358.5 553C357.7 553.7 357 554.9 357 555.6C357 556.3 354.6 558.1 351.8 559.5C346 562.3 342.8 564.2 342 565.1C341.7 565.4 339.9 566.2 338 566.9C333.8 568.2 327.1 573.2 330.7 572.4C331.9 572.1 333.8 570.9 334.9 569.9C336.1 568.8 337 568.3 337 568.8C337 569.4 338 570.1 339.3 570.5C340.7 570.9 341 571.3 340.2 571.7C339.5 572 338.3 571.6 337.5 571C336.6 570.2 336 570.2 336 570.8C336 571.8 330.5 573.6 328.4 573.2C327.8 573.1 324.8 574.1 321.8 575.4C318.7 576.8 316 577.7 315.7 577.4C315.4 577.1 314.9 577.4 314.5 577.9C313.3 580 316.7 580.1 321.4 578C326.8 575.7 327 575.7 327 576.9C327 577.4 326.2 578.1 325.3 578.4C324.3 578.8 321.7 580.2 319.5 581.5C317.3 582.9 314.7 584.3 313.8 584.6C312.8 585 312 585.6 312 586.1C312 586.7 311.2 587.4 310.3 587.7C308.2 588.5 300.2 594 294.8 598.3C292.7 600 290.8 601.1 290.5 600.8C289.7 600 293 594 294.2 594C294.8 594 296.1 593.4 296.9 592.6C297.8 591.8 300.1 590.3 302 589.2C310.3 584.5 312 583.5 312 582.7C312 581.3 310.3 582 305.4 585.5C302.7 587.4 300.1 589 299.6 589C299.1 589 297.9 589.7 296.9 590.6C294.7 592.6 292.7 591.6 293.9 589.2C294.4 588.3 295.1 586.7 295.4 585.7C295.7 584.7 296.9 584 298.3 584C299.6 584 301.1 583.5 301.7 582.9C302.3 582.3 305.5 581.7 308.9 581.7C312.5 581.6 314.9 581.1 314.7 580.5C314.2 579 309.1 578.7 307.5 580C306.7 580.7 305.4 581 304.5 580.7C303.7 580.3 302.8 580.5 302.5 581C302.1 581.6 300.5 582 298.9 582C296.4 582 296.1 581.7 296.9 580.2C297.4 579.3 297.8 578.3 297.8 578C297.9 577.3 299 574 300 571.5C300.4 570.4 301.8 567 303 564C305.3 558 306.5 555.1 308.5 550.5C309.3 548.8 310.2 546.4 310.5 545C311.9 539.8 313.8 538 317.8 538C319.9 538 322 537.6 322.6 537C324.5 535.1 367.8 534.8 370.3 536.7ZM311 539.9C311 540.4 310.2 542.3 309.3 544.2C308.4 546 307.1 548.7 306.3 550.2C305.6 551.6 305 553.5 305 554.3C305 555.2 304.2 557.3 303.3 559.2C302.4 561 301.1 563.7 300.3 565.2C299.6 566.6 299 568.8 299 569.9C299 571.1 298.6 572 298.2 572C297.7 572 296.8 574.5 296.1 577.5C295.2 581.3 294.4 583 293.3 583C292 583 291.8 582.2 292.4 578.3C292.7 575.7 293.4 573.4 293.9 573.1C294.3 572.7 295 570.4 295.4 567.8C295.8 565.2 296.5 562.8 297 562.5C297.4 562.2 298.1 559.6 298.5 556.7C298.9 553.9 299.6 551 300 550.5C300.4 549.9 301.1 547.6 301.5 545.2C302 542 302.6 541 304 541C305 541 306.2 540.5 306.5 540C307.3 538.7 311 538.7 311 539.9ZM299.3 542.2C299.9 543.8 299 550.2 298 551.5C297.6 552 296.7 555.8 296 559.7C295.4 563.7 294.4 567 293.9 567C293.4 567 293 568.3 293 569.9C293 571.6 292.6 573.1 292.1 573.4C291.6 573.8 290.9 575.9 290.5 578.2C290.1 580.6 289 583 288.1 583.6C287.3 584.3 283.3 585.1 279.3 585.5C275.3 585.9 271.8 586.6 271.4 587.1C271.1 587.6 269.6 588 268 588C263.4 588 263.5 587.7 283.3 564C286.4 560.2 289 556.7 289 556.1C289 555.6 290.4 554 292 552.7C293.7 551.3 295 549.7 295 549.2C295 548.7 295.9 547.5 297 546.5C298.1 545.5 299 544.2 299 543.7C299 543.1 297.7 543.9 296 545.5C294.4 547.1 293 548.7 293 549.1C293 549.6 292 551 290.8 552.3C286.1 557.3 281 563.9 281 564.7C281 565.2 279.7 566.6 278 567.8C276.4 569.1 275 570.6 275 571.3C275 572 273.7 573.9 272 575.5C270.4 577.1 269 578.9 269 579.7C269 580.4 268.2 581.4 267.1 581.9C265.5 582.8 265.2 582.5 264.6 579.8C264.3 578.1 264 575 264 572.9C264 570.8 263.6 568.8 263 568.5C262.5 568.2 262 567.2 262 566.3C262 563.7 258.8 558 257.4 558C256.5 558 256 559.1 256 560.8C256 562.3 255.6 564 255 564.6C254.5 565.1 253.9 571.1 253.8 578C253.5 589 253.3 590.5 251.8 590.8C250.2 591.1 250 590 250 578.6C250 570.9 250.4 565.9 251.1 565.5C251.7 565.1 252 562 251.9 558.2L251.7 551.6L257.6 550.2C260.8 549.5 266 548.4 269 547.7C272 547.1 274.7 546.3 275 546C275.3 545.6 277.1 545 279 544.6C280.9 544.2 283.6 543.7 285 543.4C286.4 543.2 289.8 542.6 292.5 542.1C295.3 541.6 297.8 541.2 298.2 541.1C298.5 541.1 299 541.6 299.3 542.2ZM397.9 545.8C400.4 547.9 403.3 549.9 404.4 550.3C407.3 551.4 404.6 553.8 399.4 554.6C397 554.9 394.7 555.6 394.4 556.1C394.2 556.6 391.7 557.2 388.9 557.6C386.2 558 383.7 558.6 383.4 559.1C383.2 559.6 380.7 560.2 377.9 560.6C375.2 561 372.7 561.7 372.4 562.1C372.1 562.6 371.5 562.8 371 562.5C370.5 562.2 369.9 562.4 369.5 563C369.2 563.5 367.6 564 366 564C364.4 564 362.9 564.4 362.6 564.9C361.4 566.7 356.3 566.7 355.1 564.8C354.5 563.8 353.5 563 353 563C351.8 563 351.6 565.6 352.8 566.3C353.2 566.5 352.9 566.5 352.3 566.4C351.6 566.2 351 566.5 351 567C351 567.6 350.1 568 349.1 568C348 568 346.8 568.4 346.5 569C346.2 569.5 344.6 570 343 570C339.5 570 338.3 567.6 341.7 567.4C343 567.3 344.9 566.6 345.8 565.8C348.7 563.3 354.3 561.4 354.8 562.8C355.5 565 356.8 564 357.4 560.6C357.8 558.7 358.8 557 359.8 556.6C361.7 556 365.2 553.8 366 552.8C366.3 552.5 367.8 551.8 369.3 551.5C370.8 551.1 372.4 550.3 372.8 549.6C373.2 549 375.3 547.6 377.5 546.7C379.7 545.7 382.6 544 384 542.9C387.6 540.1 392.2 541.1 397.9 545.8ZM449.3 548.7C449 552.5 448.4 555.9 448 556.5C447.6 557 446.9 560.2 446.5 563.5C446.1 566.8 445.5 569.9 445 570.5C444.6 571 443.9 573.4 443.5 575.7C443.1 578.1 442.5 580.2 442 580.5C441.6 580.8 440.9 583.4 440.5 586.5C440.2 589.5 439.4 592.2 438.9 592.5C438.4 592.9 438 593.9 438 594.9C438 595.8 436.4 598.1 434.5 600C432.6 601.9 431 603.8 431 604.2C431 604.6 429 607 426.5 609.4C424 611.9 422 614.3 422 614.7C422 615.2 420 617.6 417.5 620C415 622.4 413 624.8 413 625.2C413 626.4 404.9 634.3 404.3 633.7C404.1 633.4 404.3 632.4 404.8 631.3C409.6 621.6 411 617.4 412.1 610.5C412.8 606.1 413.7 602.1 414.2 601.6C414.6 601 415 599.2 415 597.5C415 595.8 415.6 593.8 416.3 593.1C417.1 592.3 417.5 588.4 417.4 580.6C417.3 571.1 417 568.8 415.4 566.4C414.3 564.8 412.8 562.1 412 560.5C411.2 558.8 410.1 557.2 409.5 556.8C407.3 555.2 410.9 552.5 417.1 551C420.6 550.2 424 549.2 424.5 548.8C425.1 548.5 427.3 547.9 429.5 547.5C433.4 546.9 434.9 546.4 440 544.2C442.7 543 445.5 542.3 448.2 542.1C449.7 542 449.9 542.8 449.3 548.7ZM249.2 571C248.8 591.8 248.7 592 241.5 592C239.2 592 237 592.4 236.5 592.9C235.9 593.4 233.4 594 230.9 594.2L226.2 594.7L225.1 586C224.5 581.3 224 576.2 224 574.7C224 573.2 223.6 572 223 572C222.5 572 222 570.5 222 568.7C222 566.9 221.5 564.9 220.9 564.3C220.3 563.7 220 562.2 220.2 560.9C220.5 558.8 221.4 558.3 228.7 557C233.2 556.2 237.2 555.2 237.6 554.7C238 554.3 239.6 554 241.1 554C242.6 554 244.2 553.5 244.5 552.9C244.9 552.4 246.2 552 247.3 552.2C249.5 552.5 249.5 552.7 249.2 571ZM407 555.5C407 556.3 407.4 557 407.9 557C408.4 557 409.1 557.8 409.4 558.7C409.8 559.7 411 562.1 412 564C413.1 565.9 414 569.2 414 571.2C414 573.2 414.5 575.2 415 575.5C416.3 576.3 416.3 587.3 415 588.6C414.5 589.1 413.5 593.9 412.8 599.3C412.1 604.6 411.2 609 410.8 609C410.4 609 410 610.3 410 611.9C410 613.6 409.6 615.1 409 615.5C408.5 615.8 408.3 616.7 408.6 617.4C408.9 618.1 407.9 620.9 406.5 623.6C405 626.4 403.7 630.3 403.7 632.7C403.6 635 403.2 637.1 402.8 637.5C402.4 637.9 402.4 637.3 402.7 636.1C403.8 632 401.5 634.2 398.8 639.8C395.6 646.6 396.1 648.5 399.9 643.3C401.4 641.2 403.4 638.9 404.3 638.1C405.2 637.4 406 636.3 406 635.8C406 635.2 410.1 630.4 415 625C420 619.6 424 614.8 424 614.4C424 613.9 426 611.6 428.4 609.3C430.8 607.1 433 604.5 433.3 603.6C433.7 602.7 434.5 602 435.2 602C436 602 436.1 602.3 435.5 602.8C434.9 603.2 433.6 605.4 432.5 607.7C431.4 610.1 430.2 612 429.9 612C429.5 612 428.9 613.2 428.5 614.7C428.2 616.3 426.9 619.1 425.6 621C424.4 622.9 422.8 626.1 422 628C421.3 629.9 418.1 634.4 415.1 638C412 641.6 408.2 646.2 406.7 648.2C405.2 650.3 402.5 652.3 400.5 653C398.6 653.6 397 654.6 397 655.1C397 655.6 396.4 656 395.6 656C394.8 656 393.9 656.6 393.6 657.2C393.3 657.9 393.3 657.4 393.6 656C394 654.6 394.6 653.3 395 653C396.2 652.1 397 649 396.4 647.5C395.4 645 394.1 645.8 394.2 648.9C394.3 651.8 391.8 656.2 387.2 661.2C385.8 662.8 384.9 664 385.3 664C385.6 664 384.8 665.6 383.5 667.6C382.1 669.6 381 671.8 381 672.4C381 673 380.1 674.1 379 674.8C377.9 675.5 377 676.5 377 677.1C377 677.6 374.5 681.7 371.5 686C368.5 690.3 366 694.2 366 694.6C366 694.9 364.7 696.9 363 699C361.4 701.1 360 703.2 360 703.7C360 704.1 358 706.8 355.5 709.7C353 712.5 351 715.2 351 715.6C351 716 349.4 718 347.5 719.9C341.6 726 336 732.7 336 733.6C336 734.1 334.3 736.1 332.3 738.1C330.2 740.1 326.6 744.1 324.2 746.9C319.6 752.3 317.9 753.3 318.5 750C318.7 748.9 318.5 747.8 317.9 747.5C317.4 747.1 317 746 317 744.8C317 743.7 316.3 741.6 315.4 740.1C313.8 737.4 313.8 737.3 319.4 731.8C322.5 728.8 325 725.9 325 725.5C325 725 329.4 720.1 334.8 714.5C340.1 708.9 348.7 700.1 353.8 694.8C358.8 689.5 363 684.8 363 684.4C363 683 379.4 667 380.8 667C381.6 667 382 666.4 381.7 665.5C381.3 664.7 382.3 662.9 384 661.3C385.7 659.8 387 658 387 657.4C387 656.9 388.6 654.9 390.5 653C392.4 651.2 393.8 649.4 393.5 649.2C392.9 648.5 385 656.5 385 657.8C385 658.3 382.8 660.8 380.2 663.2C376.1 667.1 374.6 667.8 369.7 668.4C366.6 668.8 363.8 669.6 363.5 670.1C362.7 671.2 336 671.3 336 670.1C336 669.6 331.1 668.9 325 668.5C319 668.2 314 667.5 314 667C314 666.5 314.6 664.9 315.4 663.3C316.2 661.8 317.6 658.5 318.5 656C320.5 650.6 322.7 645.4 324.6 641.8C325.4 640.4 326 638.3 326 637.3C326 636.2 326.7 634.5 327.5 633.4C329.2 631.2 329.5 628 328 628C327.5 628 327 628.7 327 629.6C327 631.2 325 636.3 322.4 641.2C321.6 642.6 321 644.3 321 645C321 646.1 319.8 649.3 316.5 656.5C315.7 658.1 314.8 660.6 314.4 662C313.1 667 309.9 668.6 307.5 665.4C306.6 664.1 306.6 663.1 307.4 661.4C308 660.1 308.8 659 309.3 659C309.7 659 310 658.5 310 657.8C310 657.2 312.2 652.1 314.9 646.6C317.6 641 320.8 634.3 322 631.7C324 627.2 324.5 626.8 327.2 627.2C329.2 627.5 330.5 627.1 331.4 625.9C332.4 624.4 333.5 624.2 337.9 624.7C340.7 625 343.3 625.7 343.6 626.1C343.9 626.6 345.1 627 346.4 627C349.5 627 365.4 631.1 366 632C366.6 633 372 634.5 372 633.7C372 632.5 363 628.9 357.4 627.9C354.2 627.3 350.7 626.4 349.8 625.9C348.8 625.4 347.3 625 346.5 625C345.7 625 344.2 624.6 343.2 624.1C342.3 623.5 339.4 622.8 336.8 622.5C331.6 621.8 331.2 621.4 333.5 618.4C334.3 617.4 335 615.8 335 615C335 614.2 335.9 611.8 337 609.7C338.1 607.7 339 605.3 339 604.5C339 603.7 339.4 603 339.9 603C340.4 603 341.1 601.5 341.5 599.7C342.2 596.7 342.9 594.7 346.5 586.5C350.4 577.6 351.3 575.4 351.9 573.1C352.3 571.8 353.5 570.2 354.6 569.6C355.6 569 356.7 568.2 357 567.9C357.3 567.5 359.9 566.9 362.7 566.5C365.6 566.1 368.2 565.4 368.5 565C368.8 564.5 370.9 563.9 373.3 563.5C377.7 562.8 386.3 560.3 389.2 558.9C390.1 558.5 393.8 557.6 397.4 556.9C401 556.3 404 555.4 404 554.9C404 554.4 404.7 554 405.5 554C406.3 554 407 554.7 407 555.5ZM82 558.4C82 559.2 83.1 561.1 84.3 562.7C85.6 564.2 87.8 568 89.3 571C90.7 574 93 578 94.4 579.9C95.8 581.8 97 583.9 97 584.4C97 585 97.8 586.8 98.7 588.5C101.8 594.2 106 602.4 106 602.7C106 603.6 80.3 602.9 79.3 601.9C78.7 601.3 73.3 600.8 66.9 600.7C60.6 600.6 56.7 600.4 58.3 600.2C62.5 599.7 61.5 598.3 56.3 597.5C53.6 597.1 51.2 596.3 50.9 595.8C50.1 594.6 58.7 583 60.3 583C60.9 583 61 582.7 60.7 582.4C60.3 582 62.3 579.2 65.2 576.1C68 573.1 71.3 568.9 72.6 566.9C73.9 564.8 75.4 562.9 76 562.5C76.6 562.1 77.5 560.7 78 559.4C79 556.8 82 556.1 82 558.4ZM219.5 564.7C219.8 567.4 220.5 570.2 220.9 571C221.4 571.9 222.1 576.3 222.5 580.8C222.9 585.3 223.6 589.3 224.1 589.6C224.6 589.9 225 591.2 225 592.6C225 594.3 224.5 595 223.1 595C222 595 220.8 595.4 220.5 596C219.7 597.2 213.3 597.3 212.6 596.1C212.3 595.6 210 594.9 207.5 594.6C205.1 594.2 202.8 593.5 202.5 593C202.2 592.5 199.9 591.8 197.3 591.4C194.8 591 191.5 590.1 190.1 589.4C188.7 588.6 186.8 588 185.9 588C185 588 183.7 587.3 183 586.5C182.3 585.7 181.3 585 180.8 585C180.3 585 179.2 585.7 178.4 586.5C177.5 587.3 176.1 588 175.2 588C174 588 174.3 587.4 176.3 586.2C177.8 585.3 179 584.3 179 584C179 583.3 172.2 579 171 579C170.5 579 170 578.6 170 578C170 577.5 168.9 576.8 167.5 576.4C166.1 576.1 165 575.4 165 575C165 574.6 163.5 573.8 161.8 573.2L158.5 572.2L161.7 572.1C163.4 572 165.1 571.6 165.5 571.1C165.8 570.6 168.6 569.8 171.8 569.4C174.9 569.1 178 568.4 178.5 568C179.1 567.5 182.2 566.9 185.5 566.5C188.8 566.1 192 565.4 192.5 565C193.4 564.3 204.4 562.1 209.7 561.6C211 561.4 212.3 561 212.7 560.7C213 560.3 214.6 560 216.1 560C218.7 560 218.9 560.4 219.5 564.7ZM261.1 568.3C261.7 569.4 262 571.9 261.9 573.9C261.7 575.9 261.9 578 262.3 578.6C263.2 580.2 263.5 586.4 262.6 587.8C262.2 588.5 260.6 589 258.9 589H256V576.7C256 569.9 256.3 564 256.8 563.6C257.2 563.2 257.6 562.4 257.6 561.9C257.9 559.5 258.2 559.8 259.1 563C259.6 564.9 260.5 567.3 261.1 568.3ZM351 573.3C351 575.3 349.2 577.5 348.3 576.6C347.9 576.1 348.1 575.5 348.8 575.3C350.1 574.8 350.5 572 349.1 572C348.4 572 335 597.9 335 599.4C335 599.8 333.9 601.8 332.5 603.8C331.1 605.8 330 608.1 330 608.9C330 609.7 328.8 612.7 327.4 615.7C325.4 620 324.5 621 323.2 620.5C321.7 619.9 316.8 618.8 304.5 616.3C302.9 616 301.1 615.4 300.5 615C300 614.6 296.7 613.9 293.3 613.5C288.1 612.9 287 612.5 287 611C287 609.9 287.5 608.8 288 608.5C288.6 608.2 289 607 289 606C289 604.9 290.2 603.3 291.8 602.3C293.3 601.4 296.6 598.9 299.1 596.8C301.7 594.7 304.2 593 304.6 593C305.1 592.9 307.1 591.6 309 590C310.9 588.3 312.8 587 313.3 587C313.7 587 315.6 585.9 317.4 584.5C319.2 583.1 321 582 321.4 582C321.8 582 323.6 580.9 325.3 579.6C330 576.1 336.6 573.2 341.6 572.4C344 572.1 346.3 571.4 346.6 570.9C347.3 569.7 351 571.7 351 573.3ZM348 579C348 579.5 347.6 580 347 580C346.5 580 346 579.5 346 579C346 578.4 346.5 578 347 578C347.6 578 348 578.4 348 579ZM344.7 587.2C343.9 589 342.7 591.8 341.9 593.5C341.2 595.1 340.5 596.9 340.4 597.5C339.9 600.1 338.7 603 338.1 603C337.7 603 336.8 605.2 336.1 608C335.4 610.7 334.4 613 333.9 613C333.4 613 333 614.1 333 615.5C333 616.9 332.6 618 332.1 618C331.6 618 331 619 330.6 620.2C330.1 622.3 329.9 622.3 328.5 620.9C327 619.5 327.1 619 328.7 615.9C329.7 614 330.8 612.3 331.3 612.2C331.7 612 332 611 332 610C332 609 334.1 603.9 336.8 598.8C339.4 593.7 342.4 587.5 343.5 585C344.7 582.1 345.5 581.1 345.8 582.2C346 583.2 345.5 585.4 344.7 587.2ZM288.3 587.7C287.6 588 287 589.5 287 591C287 592.6 286.6 594.1 286 594.5C285.5 594.8 285.3 595.7 285.7 596.5C286 597.3 285.8 598 285.2 598C284.7 598 280.9 600.3 276.7 603C272.5 605.8 267.9 608.5 266.5 609C265.1 609.5 264 610.6 264 611.5C264 612.3 263.6 613 263 613C261.6 613 261.7 610.3 263.1 609.8C263.7 609.6 264.3 605.8 264.4 600.2C264.5 595.2 265 590.6 265.5 590.1C266.1 589.5 270.8 588.6 276 587.9C281.2 587.2 285.9 586.3 286.5 585.8C287 585.4 287.9 585.5 288.5 586.1C289.2 586.9 289.1 587.4 288.3 587.7ZM292.6 586.5C293 587.3 292.7 588.7 292 589.5C291.4 590.3 291.1 591.3 291.4 591.8C291.7 592.4 291.3 593.3 290.4 594C289.6 594.7 289.2 596 289.5 596.9C290 598.3 289.9 598.3 288.4 596.8C287.2 595.6 287 594.7 287.7 593.8C288.3 593.1 289 590.8 289.4 588.7C290.1 584.9 291.6 583.8 292.6 586.5ZM254.3 593.9C254 594.9 254.3 596.1 254.9 596.4C256.4 597.4 256.3 602.3 254.8 604.2C254.1 605.1 252.4 606.1 251 606.5C249 607 248.8 606.9 250 606C251.1 605.1 251.2 604.7 250.3 604.3C248.1 603.4 248.7 595.4 251.2 593.1C253.6 590.8 255 591.1 254.3 593.9ZM263 592.5C263.7 593.4 263.9 594.4 263.5 594.8C263.1 595.2 262.5 594.9 262.3 594.2C261.6 592.4 260.2 592.7 259.5 595C258.5 598.2 256 597.5 256 594C256 591.4 256.3 591 258.9 591C260.5 591 262.3 591.7 263 592.5ZM31.3 593.8C35.5 594 39.3 594.7 39.6 595.1C39.9 595.6 41.2 596 42.6 596C43.9 596 45 596.5 45 597.1C45 597.7 45.7 597.9 46.6 597.6C48.7 596.8 56.1 598 55.4 599.1C54.7 600.2 46.3 600.3 45.6 599.2C45.3 598.7 40.9 598 35.9 597.7C30.8 597.3 26.2 596.6 25.6 596.1C24.2 595 19 593.8 19 594.6C19 594.9 21.3 597.7 24 600.9C29 606.6 30.3 610 27.6 610C26.8 610 26 610.5 25.8 611C25.6 611.6 23.6 612.2 21.3 612.3C17.8 612.4 16.5 611.9 14 609.5C12.4 607.9 11 606.1 11 605.4C11 604.8 10.3 603.7 9.50001 603C8.70001 602.3 8.00001 600.2 8.00001 598.4C8.00001 595.6 8.50001 594.8 10.7 593.9C12.1 593.4 14.6 593.2 16.1 593.5C17.7 593.9 19.1 593.6 19.5 593C19.9 592.4 20.9 592.2 21.9 592.6C22.8 592.9 27 593.5 31.3 593.8ZM249 593.9C249 594.5 248.6 595.2 248 595.5C247.5 595.8 247 597.8 247 599.9C247 603.6 244.7 607.1 243.3 605.6C242.9 605.2 243.2 604.5 244 604C245.1 603.3 244.7 603 242.5 603C238.3 603 234.9 604.1 235.6 605.1C235.9 605.6 237.4 606 239 606C240.6 606 243 606.4 244.4 607C246.8 607.9 247 608.5 247 613.4C247 616.4 246.5 619.2 246 619.5C245.2 620 245.3 620.7 246.2 621.8C247.3 623.1 247.2 623.3 245.8 622.7C244.6 622.3 244 622.5 244 623.4C244 625.9 239.7 628.8 236.5 628.3C233 627.8 231 624.4 231 619C231 617 230.6 615 230.1 614.4C229.6 613.9 229 611.4 228.7 608.7C228.3 604.2 228.3 604 230.9 604C234.5 604 238 602.9 238 601.9C238 601.4 236.9 601 235.6 601C231.9 601 228 599.2 228 597.5C228 596.4 229.1 596 231.8 596C233.9 596 236 595.6 236.6 595.1C237.4 594.2 239 594 247.3 593.2C248.2 593.1 249 593.4 249 593.9ZM262 601.6C262 606.8 261.9 607.1 259.8 606.8C257.9 606.6 257.5 606 257.8 603.2C258.1 599.4 259.6 596 261 596C261.6 596 262 598.5 262 601.6ZM33.5 599C37.1 600.5 55.9 602.8 69.1 603.2C76.3 603.4 78.6 603.8 78.3 604.7C78 605.5 78.7 606 80.2 606C81.5 606 85.1 606.9 88.3 608C91.4 609.1 94.6 610 95.5 610C96.3 610 97 610.4 97 610.9C97 611.4 98.5 612.2 100.3 612.5C102 612.9 104 613.5 104.5 613.9C105.1 614.2 107.1 615 109 615.5C111.6 616.3 112.6 617.2 112.9 619C113 620.4 113.5 621.7 113.9 622C115.2 623 118 628.9 118 630.7C118 631.7 118.6 633.7 119.4 635.2C122.4 640.9 122.3 643.4 119 646.8C117.4 648.6 115.6 650 115.2 650C113.7 650 103.5 661.5 101.6 665.2C100.5 667.3 99.3 669 98.7 669C96.6 669 73.6 648.7 40.3 617.3C35.2 612.6 31 608.1 31 607.4C31 606.7 29.9 605.3 28.5 604.2C27.1 603.1 26 601.9 26 601.4C26 601 25.2 599.8 24.3 598.8C22.7 597 22.8 596.9 27.1 597.5C29.5 597.9 32.4 598.5 33.5 599ZM225.8 598.7C225.6 599.6 224.9 600.5 224.1 600.8C223.1 601.1 222.9 600.8 223.3 599.7C223.7 598.6 223.2 598 221.7 597.7C220.2 597.4 220.6 597.2 222.8 597.1C225.4 597 226.1 597.4 225.8 598.7ZM219 598.4C219 598.7 218.6 599.2 218 599.5C217.5 599.8 217 599.6 217 599.1C217 598.5 217.5 598 218 598C218.6 598 219 598.2 219 598.4ZM288.7 599.5C289 600.4 288.5 601.9 287.7 602.8C286.8 603.8 286.3 605.5 286.5 606.5C287 608.7 284.5 612.8 283.3 611.7C283 611.3 283.2 609.9 283.9 608.6C284.7 607.3 284.9 605.7 284.6 605.1C284.2 604.5 284.4 604 284.9 604C285.5 604 286 602.6 286 601C286 597.8 287.7 596.9 288.7 599.5ZM216.5 601C216.8 601.6 218.2 601.7 219.6 601.4C221 601 222 601.2 222 601.9C222 602.5 222.8 603 223.8 603C226.3 603 227.7 606.3 228.5 614C228.8 617.6 229.4 622.3 229.7 624.4C230.3 628.1 230.2 628.3 228.1 627.7C225.4 627 219.8 628.8 218.7 630.7C218.3 631.4 217.3 632 216.6 632C215.8 632 214.7 632.7 214 633.5C212 635.9 209.6 635.3 205.7 631.5C203.7 629.6 201.8 628 201.4 628C201 628 199 626.5 197 624.7C194.9 623 189.3 618.3 184.4 614.5C179.6 610.6 174.7 606.6 173.6 605.5L171.5 603.5L181.5 602.9C187 602.6 193 601.9 194.8 601.5C198 600.8 198.5 601.2 211.6 614.1C219 621.4 225 627 225 626.5C225 625.9 219.7 620.2 213.2 613.8C206.7 607.4 201.6 601.7 201.8 601.1C202.3 599.7 215.7 599.6 216.5 601ZM283 605.5C282.4 607.5 281.4 608.7 280.8 608.4C280.2 608 280 608.6 280.4 610.1C280.7 611.4 280.7 611.9 280.4 611.2C280.1 610.5 278 610 275.5 610C272.9 610 271 610.5 270.7 611.2C270.5 611.9 270 612.2 269.6 611.9C269.3 611.6 270 610.3 271.2 609C274.4 605.9 283.4 600.2 283.8 601.2C284 601.6 283.6 603.6 283 605.5ZM232 602.6C232 602.8 231.1 603 229.9 603C228.8 603 228.1 602.6 228.5 602C229 601.2 232 601.7 232 602.6ZM174 607.5C179.8 613 185.7 618 186.4 618C187.1 618 195.5 624.9 205.8 633.7C210.1 637.5 211.2 640 208.5 640C207.7 640 207 639.5 207 639C207 638.4 206.6 638 206.1 638C205.6 638 203.9 637.5 202.3 636.9C188.6 631.3 187.1 631 169.7 631C160.4 631 152.2 630.6 151.2 630C148.6 628.5 143.6 626.7 142.7 626.9C142.2 627 140.6 626.2 139.1 625.1C137.6 624 135.1 622.8 133.4 622.4C131.8 622 130.1 621.5 129.5 621.1C129 620.8 128.1 620.5 127.5 620.5C126 620.3 119.4 617.7 114.2 615.1C112.1 614.1 108.7 607.3 109.3 605.6C110 603.8 114.5 603.4 115.5 605C116.3 606.3 143 606.3 143 605C143 604.1 163.2 603 168 603.8C169.4 604 172.1 605.7 174 607.5ZM107 605.6C107 606.5 107.9 608.5 109.1 610.2C110.3 611.8 111 613.3 110.8 613.5C110.1 614.2 102.8 612 97.5 609.5C94.8 608.2 90.6 606.9 88.2 606.5C80.7 605.3 84.8 604 96.1 604C105.4 604 107 604.2 107 605.6ZM250.5 611C250.2 612.1 250.3 613 250.8 613C251.3 613 252 612.1 252.3 611C253 608.2 256 608.4 256 611.2C256 612.5 256.3 616.5 256.6 620.1L257.3 626.7L252.8 629.8C250.3 631.5 248 632.6 247.6 632.3C245.5 630.2 249.5 621 252.6 621C253.2 621 254.3 620.3 255 619.5C256.8 617.3 254.7 617.7 251.7 620L249.1 622L249.2 615.5C249.3 611.9 249.7 609 250.2 609C250.7 609 250.8 609.9 250.5 611ZM260 615.7C260.1 618.9 260.1 622.3 260.1 623.2C260.1 625.4 260.8 625.5 262.9 623.6C271.6 616.1 280 612.8 280 616.9C280 618 279.6 619.2 279 619.5C278.5 619.8 278 621.2 278 622.5C278 623.8 277.5 625.2 276.9 625.5C276.3 625.9 276.1 626.8 276.4 627.6C276.7 628.3 276.5 629.2 276 629.5C275.6 629.8 274.9 631.8 274.5 634C274.1 636.2 273.5 638.2 273 638.5C272.5 638.8 271.9 640.8 271.5 643C271.1 645.2 270.4 647.2 269.9 647.6C269.4 647.9 269 649.1 269 650.3C269 652.2 268.3 651.7 264.6 647.6C262.2 645 260.2 641.8 260.2 640.6C260 633.3 259.1 619.7 258.5 615.2C258 611.8 258.1 610 258.8 610C259.4 610 259.9 612.5 260 615.7ZM271.5 612.9L274.4 613.5L270 616.7C267.5 618.5 265 620.4 264.3 621C262.4 622.6 262 622.2 262 618.8C262 615.3 264.5 611.9 266.9 612.1C267.8 612.2 269.8 612.5 271.5 612.9ZM292.5 615C292.8 615.5 294.6 616 296.5 616C298.4 616 300.1 616.4 300.4 616.9C300.7 617.3 303.7 618 307.1 618.4C310.5 618.8 314 619.5 314.9 620C315.8 620.5 318.2 621.2 320.3 621.5C322.4 621.8 323.8 622.5 323.6 622.9C323 623.8 305.8 621 305 619.9C304.7 619.5 301.9 618.9 298.8 618.5C295.6 618.1 293 617.4 293 616.9C293 616.4 291.9 616 290.5 616C285.8 616 288 617.9 293.5 618.5C296.5 618.9 299.3 619.6 299.5 620C299.8 620.5 302.5 621.2 305.5 621.5C308.5 621.9 311 622.6 311 623C311 623.4 313.3 624.1 316.2 624.4C322.6 625.3 323.2 625.6 322 627.8C321.5 628.7 320.1 631.7 318.9 634.5C315 643.3 307.5 658.5 306.8 659C306.5 659.3 305.8 660.8 305.5 662.3C305.1 663.8 304.5 664.9 304.1 664.7C303.8 664.5 302 663.7 300.3 663C298.5 662.2 297 661.2 297 660.7C297 660.3 296.5 660.2 295.9 660.6C295.2 661 294.9 660.8 295.2 660C295.4 659.3 297.2 658.2 299.3 657.5C303.8 655.9 308 653.3 308 652C308 651.4 306.8 650.5 305.3 649.9C303.7 649.3 301.7 648.4 300.8 647.9C295.7 645.3 285.7 648.2 275.8 655.1C272.5 657.5 272 657.5 272 654.9C272 653.8 271.6 653.1 271.1 653.4C270.7 653.7 270.7 651.6 271.2 648.7C271.8 645.9 272.5 643.3 273 643C273.4 642.7 274.1 640.6 274.5 638.3C274.9 635.9 275.6 633.8 276.1 633.4C276.6 633.1 277 632 277 630.9C277 629.9 277.4 629 277.9 629C278.5 629 279.2 626.9 279.6 624.2C280.4 618.6 281.7 615.7 283.1 616.6C283.8 617 283.8 617.6 283.1 618.4C282.6 619 281.6 621.8 281 624.5C280.4 627.3 279.6 630.4 279.1 631.5C278.7 632.6 277.5 635.2 276.6 637.3C275.8 639.3 274.7 642.8 274.4 645C274 647.2 273.4 649 272.9 649C272.4 649 272 649.9 272 651C272 654.4 273.7 653.2 274.5 649.4C274.8 647.4 275.6 644.9 276.1 643.9C276.6 642.8 277.4 641.2 277.8 640.2C278.3 639.3 279.3 636 280 633C280.7 630 281.6 627 282 626.5C282.4 625.9 283.1 623.9 283.5 622C284.6 616.4 290.5 611.8 292.5 615ZM120.3 619.4C122.1 620.1 125.8 621.5 128.5 622.5C131.3 623.5 135.3 625 137.5 626C147.3 630.3 149.2 631 150.6 631C151.4 631 151.8 631.5 151.4 632.1C151.1 632.7 149.9 633 148.9 632.7C146.3 632 136.9 635.2 128.8 639.6C125.1 641.6 123 641.4 123 639C123 637.9 122.6 637 122 637C121.5 637 121 636.2 121 635.2C121 634.2 120.6 633 120.1 632.4C119.7 631.9 118.7 629.4 118 626.7C117.3 624.1 116.3 622 115.9 622C115.4 622 115 621.1 115 620C115 617.6 116.1 617.5 120.3 619.4ZM329 623.5C330 624.8 329.9 625 328.1 625C326.9 625 326 624.4 326 623.5C326 622.7 326.4 622 326.9 622C327.4 622 328.3 622.7 329 623.5ZM245.3 629.5C244.6 631.4 243.6 631.4 242 629.5C240.9 628.2 241 628.1 242.4 628.6C243.3 628.9 244 628.7 244 628C244 627.4 244.4 627.1 245 627.5C245.5 627.8 245.7 628.7 245.3 629.5ZM257.3 633.7C257.3 639.4 255.6 640.3 252 636.5C249.6 634 249.6 633.8 251.4 632.8C252.4 632.3 253.9 630.9 254.8 629.9C256.9 627.5 257.3 628 257.3 633.7ZM228.9 631.1C231.5 633.6 231.3 634.9 227.8 637C226.4 637.8 223.9 639.5 222.3 640.7L219.3 642.9L215.9 640L212.5 637L215 635C216.4 633.9 218 632.6 218.5 632.2C219.5 631.4 224.6 629.3 226.1 629.1C226.4 629 227.6 629.9 228.9 631.1ZM235.7 630.4C235.5 631 234.6 631.6 233.7 631.8C232.6 632 232.2 631.7 232.5 630.7C233.2 629.1 236.2 628.8 235.7 630.4ZM241.5 632C241.8 632.5 243 633 244.1 633C246.9 633 246.5 634.6 242.4 638.8C239.2 642.1 238.9 642.3 239.5 640C241.1 633.9 241.2 633 240.1 633C239.4 633 239.2 633.5 239.5 634.1C239.9 634.7 239.2 636.2 238 637.5C236.4 639.2 236 640.5 236.5 642C237 643.6 236.8 644.1 235.9 643.8C235.1 643.5 234.4 641.9 234.2 640.1C233.9 637.7 234.2 637 235.1 637.5C236 638.1 236 637.8 235.2 636.4C233.3 633.1 239.5 628.8 241.5 632ZM192.1 634.6C192.9 635.2 194.9 636 196.5 636.4C201.2 637.5 206.9 640.4 207 641.6C207 642.3 206.3 643 205.5 643.4C204.7 643.7 204 644.5 204 645.3C204 646 202.8 647.7 201.4 649.1C199.9 650.5 199.1 652.2 199.4 653.3C199.8 655 194.5 662 192.9 662C192.5 662 189.6 663.8 186.4 666C183.1 668.2 177.1 672.3 173 675.2C168.9 678 165.1 680.9 164.7 681.6C164.3 682.4 163.4 683 162.8 683C162.3 683 160.1 684.3 158 686C155.9 687.6 154 689 153.7 689C152.8 689 142.5 696.1 141.9 697.2C141 698.6 140.5 697.4 139.1 691C137.9 685.8 137.5 684.5 135 678.7C134.5 677.5 133.6 674.5 133 672C131.9 667.4 131.2 665.5 129 660.8C128.3 659.4 128 657.7 128.4 657.2C128.7 656.6 128.6 655.9 128.1 655.6C127.6 655.3 126.9 653.4 126.5 651.4C126.2 649.4 125.3 646.9 124.7 645.9C124.1 644.9 123.8 643.9 124 643.8C125.6 642.7 140.8 635.5 142 635.2C150.8 633.7 156.1 633.4 172.1 633.4C184.1 633.5 191.2 633.9 192.1 634.6ZM255.4 641.9C255.8 642.6 255.6 643.8 255.1 644.4C254.6 645 253.9 647.2 253.5 649.2C252.7 653.6 251.2 654 248.1 650.6C246.2 648.6 246 647.6 246.5 642.9C247.5 634.5 247.6 634.5 251.4 637.7C253.3 639.2 255.1 641.1 255.4 641.9ZM232 638.9C232 640.6 232.5 642.2 233 642.5C234.6 643.5 234.1 646.6 232 648.5C229.9 650.4 229.4 650.3 223.7 646.5C220.5 644.3 220 644.2 220.9 645.8C221.5 646.9 223.3 648.3 225 649C227.4 650 227.8 650.5 226.9 651.6C226 652.7 225.4 652.8 224.3 651.8C223.4 651.1 221.8 650.1 220.6 649.5C219.4 648.8 218.5 647.5 218.6 646.2C218.6 645 218.4 644 218 644C217 644 209.3 649.6 208.5 650.9C208.2 651.5 207 652 205.9 652C204.9 652 204 652.4 204 653C204 653.5 203.3 654 202.5 654C201.7 654 201 653.5 201 653C201 652.4 201.7 652 202.5 652C203.4 652 204 651.4 203.8 650.7C203.7 650.1 204.4 648 205.4 646.2C207.2 642.8 207.8 642.7 212.4 644.6C213.8 645.1 214.1 645 213.6 644.2C213.2 643.5 212.2 643 211.4 643C210.6 643 210 642.4 210 641.6C210 639 212.1 638.7 214.5 641C217.9 644.2 221.2 643.8 226.2 639.6C228.6 637.7 230.8 636 231.3 636C231.7 636 232 637.3 232 638.9ZM245 642C245 643.9 244.5 645 243.6 645C241.2 645 240.7 643 242.6 640.9C244.9 638.4 245 638.5 245 642ZM241.6 645.5C243.4 647.6 243.7 648.9 243.3 652.3C243 654.6 242.1 657.2 241.4 658C240.7 658.9 240.3 660.6 240.7 661.8C241 663.1 240.8 664 240.1 664C238.3 664 237.6 661.1 239 659.5C240 658.3 239.9 658 238.5 658C237.6 658 236.6 658.9 236.3 660C235.7 662.1 232.6 662.7 231.5 661C231.2 660.5 231.5 659.1 232.3 657.9C233.2 656.6 234 656.3 234.5 656.9C235.7 658.9 237 658 237 655.1C237 653.5 236.4 652 235.8 651.7C234.8 651.4 234.8 650.8 235.7 648.9C236.3 647.6 237.1 645.7 237.4 644.7C238.1 642.4 239 642.5 241.6 645.5ZM261.3 660.7C261.8 661.4 261.9 662.4 261.5 662.9C261.2 663.5 259.2 662 257 659.6C253.1 655.4 252 653 253.9 653C254.4 653 255.1 651.1 255.5 648.7C256.8 641.3 258.4 642.3 259.5 651.3C260.1 655.8 260.9 660.1 261.3 660.7ZM124.5 649.7C124.9 651.8 125.5 653.9 126 654.5C126.4 655 127.1 657.6 127.4 660.2C127.8 662.8 128.6 665.2 129.1 665.6C129.7 665.9 129.9 666.8 129.6 667.6C129.3 668.4 129.5 669 130 669C130.6 669 131 670.1 131 671.5C131 672.9 131.4 674 131.9 674C132.5 674 133.2 676 133.6 678.5C133.9 681 134.6 683 135 683C135.4 683 136 685.2 136.4 688C136.8 690.7 137.5 693.2 138.1 693.6C138.8 694 139 695.7 138.7 697.6C138.3 699.6 138.6 701 139.3 701.3C140 701.5 140.2 702.1 139.8 702.4C139.5 702.8 138.3 702.3 137.2 701.3C136.1 700.3 132.4 697.2 128.9 694.5C125.4 691.7 121.4 688.3 119.9 686.7C118.4 685.2 116.9 684 116.6 684C116.2 684 113.1 681.6 109.6 678.6C106.1 675.7 102.7 673.1 101.9 672.8C100.8 672.4 100.8 671.6 102 667.9C103 664.6 105.5 661.4 112.3 654.7C117.3 649.9 121.9 646 122.5 646C123.2 646 124.1 647.7 124.5 649.7ZM268 655.1C268 656.6 268.5 658 269.2 658.2C270 658.5 270 659.4 268.9 661.8C267.4 665.2 266 666 266 663.5C266 662.7 266.5 662 267 662C267.6 662 268 661.1 268 660C268 656.7 266.3 657.7 265.6 661.5C265.2 663.4 264.5 665.2 263.9 665.5C263.3 665.9 263.2 665.2 263.5 663.7C263.9 662.3 263.7 660.9 263.1 660.6C262.5 660.2 262 658.4 262 656.7C262 654.9 261.6 652.1 261.1 650.3C259.8 645.8 260.9 645.5 264.7 649.2C266.8 651.3 268 653.3 268 655.1ZM223.2 652.6C225.2 653.7 224.7 654.6 220 658.3C216.1 661.4 209.4 667.2 200.3 675.5C196.9 678.7 193.6 680.9 193 680.5C192.2 680 192.2 679.4 193 678.6C193.5 677.9 194.3 675.2 194.6 672.6C195 670.1 195.6 668 196.1 668C196.5 668 197.2 666 197.5 663.5C198.1 659.7 198.8 658.7 202.8 656.1C205.7 654.2 207.9 653.4 208.9 653.9C209.8 654.3 212 655.4 213.8 656.3C215.7 657.2 217.8 658 218.6 658C220.6 658 220.3 656 218.3 656C217.3 656 215.6 655.3 214.6 654.5C213.5 653.7 211.8 653 210.8 653C208.1 653 209.7 650.1 213.4 648.6C216.2 647.4 216.7 647.5 219 649.5C220.4 650.7 222.3 652.1 223.2 652.6ZM234.3 651.2C234.7 652.4 234.7 653.6 234.5 653.9C234.2 654.1 234 653.8 234 653.2C234 652.5 233.3 652 232.5 652C230.9 652 230.5 650.8 231.7 649.7C232.9 648.5 233.8 649 234.3 651.2ZM305 651.1C306 652.6 301.2 656 298 656C296.9 656 296 656.4 296 657C296 658.4 288.7 658.3 287.2 656.8C286.6 656.2 285.7 656 285.3 656.4C284.2 657.5 289.1 661 291.7 661C292.9 661 296.1 662.1 298.9 663.5L303.9 666.1L301.4 670.6C300 673.1 299 675.6 299.3 676.3C299.5 677 300.8 675.2 302.2 672.5C304.5 667.9 304.9 667.5 308 667.8C309.9 667.9 311.8 668.4 312.4 668.9C313 669.4 318.6 670.1 324.8 670.5C330.9 670.9 336 671.6 336 672.1C336 673.3 361.7 673.3 362.4 672.1C362.8 671.6 365.4 670.9 368.3 670.5C371.1 670.1 374.2 669.3 375 668.6C377.9 666.4 373.8 671 367.3 677.3C363.8 680.6 361 683.8 361 684.4C361 685.3 352.6 694.3 331.3 716C326.2 721.2 322 726 322 726.5C322 727.5 314 736 313 736C312.6 736 311.8 734.4 311 732.5C310.2 730.6 309.3 729 308.8 729C308.4 729 308 728.5 308 728C308 727.4 307 725.6 305.9 724C303 720.1 303.9 714.8 308 711.8C309.7 710.6 311 709.1 311 708.4C311 706.7 330.6 690.7 334.9 688.8C336.4 688.2 336.4 688.1 334.9 688.1C334 688 331.8 689.1 329.9 690.5C328 691.8 325.4 693.7 324 694.7C322.6 695.7 320.9 697.3 320.2 698.2C319.5 699.2 318.4 700 317.7 700C316.5 700 309 707 309 708.2C309 708.6 307.9 710.1 306.5 711.6C305.1 713.1 304 714.9 304 715.6C304 717.8 302.7 717.2 299.7 713.9C296.5 710.2 296.4 709.8 298.9 705.1C300 703.1 302 698.3 303.5 694.5C307.5 683.7 308.9 680.8 310 681.5C311 682.1 320.7 683.7 327.5 684.5C329.2 684.6 333.1 685.5 336.4 686.4C342.6 688.2 344.6 687.9 341.5 685.6C339.7 684.3 331.2 683 324.4 683C322.5 683 321 682.5 321 682C321 681.4 319.1 681 316.8 681C310.5 681 309.6 680.1 310.9 675.4C312.4 670.1 312.3 669.3 310.5 671.6C309.7 672.6 309 674.2 309 675.1C309 675.9 308.4 677.5 307.6 678.6C306.3 680.3 305.9 680.3 303.9 679.1C302.7 678.4 299 677.5 295.8 677.3C292.6 677 290 676.4 290 676C290 675.6 287.8 675 285.1 674.6C281 674.1 279.9 673.4 278.7 671.2C277.4 668.6 273.8 662 273.3 661.1C273.1 660.9 272.8 660.9 272.5 661.2C272.2 661.4 272.9 663.5 274 665.8C277.4 672.7 276.4 673.9 269.3 671.5C267.4 670.9 267.1 670.3 267.6 668.1C268.3 665.4 274.5 657 275.9 657C276.3 657 277.5 656.2 278.6 655.2C279.6 654.3 282.5 652.5 285 651.2C288.8 649.3 290.6 649 296.9 649.3C301.6 649.6 304.5 650.2 305 651.1ZM248.4 652.5C251.4 655.2 251.4 655.8 249.9 661.1L248.7 664.9L245.8 663.2C243.3 661.8 242.9 661 243.4 658.6C243.7 657 244 654.5 244 652.9C244 649.4 244.9 649.3 248.4 652.5ZM231.5 654C231.9 654.6 231.7 655.7 231.1 656.4C230.5 657.1 230.3 658 230.7 658.3C231 658.7 230.9 659 230.3 659C228.7 659 225.7 655.2 226.5 654.1C227.3 652.7 230.7 652.7 231.5 654ZM227.1 657.6C228.3 659 228.2 659.2 226.6 658.9C225.5 658.7 224.5 657.9 224.2 657.2C223.7 655.5 225.5 655.7 227.1 657.6ZM255 658.7C255 659.2 256.9 661.5 259.1 663.9C261.3 666.3 262.9 668.4 262.7 668.7C262.4 668.9 259.2 668.6 255.6 667.9C249.5 666.9 249 666.6 249.6 664.6C251 660.3 254.9 656 255 658.7ZM225 660C225 660.5 225.6 661 226.3 661C228 661 234 666.9 234 668.5C234 669.3 234.7 670.6 235.6 671.5C236.8 672.6 237.1 674.2 236.7 677.3C235 690.7 232.2 698.6 227.6 702.9C226.2 704.3 225 706 225 706.8C225 707.7 224.7 708.1 224.4 707.7C223.5 706.9 226.2 674 227.2 674C227.6 674 228 672.6 228 670.9C228 669.2 228.5 667 229 665.9C229.6 664.9 229.7 664 229.3 664C227.3 664 225.9 668.7 225.3 677C225 682 224.3 686 223.9 686C223.4 686 223 688.4 222.9 691.2C222.9 694.1 222.5 698.9 222.1 701.7C221.7 704.8 221.8 707.4 222.3 707.9C222.9 708.5 222.2 710.1 220.4 712.1C215.8 717.4 209.7 723 208.8 723C208.3 723 206.2 724.3 204.2 725.9C199.3 729.8 189.4 735 187 735C185.7 735 185 734.3 185 733.1C185 732 184.6 730.8 184 730.5C183.5 730.2 183.2 728.2 183.5 726.2C183.8 724.2 184.3 720.2 184.6 717.5C184.9 714.7 185.4 711.8 185.7 711C186 710.2 186.4 708.1 186.5 706.5C187.2 700.2 189.1 690.4 190 688.8C190.6 687.8 191 686.3 191 685.5C191 684.7 191.5 684 192 684C193 684 202.1 676.2 209.8 668.7C217.6 661.2 225 656.9 225 660ZM194.7 667.8C194.1 671.2 193.2 674 192.8 674C192.3 674 192 674.9 192 675.9C192 677 191.5 678.2 191 678.5C190.4 678.9 190.2 680.1 190.5 681.1C191 682.7 188.8 685.5 180.2 694.3C174.2 700.5 166.8 708.2 163.7 711.5C158.4 717.2 158.1 717.4 156.3 715.7C155.2 714.8 153.8 714 153.2 714C152.6 714 151.3 712.9 150.2 711.5C149.1 710.1 147.7 709 147.2 709C145.1 709 141.9 703.6 142.2 700.6C142.5 697.6 143.4 696.9 154.4 690.2C156 689.3 159.7 686.6 162.6 684.2C165.6 681.9 168.3 680 168.6 680C168.9 680 170.9 678.6 173 677C175.1 675.3 177.1 674 177.5 674C177.9 674 180.1 672.4 182.4 670.5C184.8 668.6 187 667 187.4 667C187.8 667 188.6 666.5 189.3 666C192.3 663.5 195.5 661.2 195.7 661.4C195.8 661.5 195.4 664.4 194.7 667.8ZM237.3 664.7C238.4 666.5 239.1 672 238.3 672C237.3 672 234 666.7 234 665.1C234 663.9 236.6 663.6 237.3 664.7ZM244.3 664.7C242 665.6 243 666.8 246.6 667.4C248.5 667.8 251.9 669.7 254.1 671.7C256.3 673.7 258.3 675.1 258.5 674.8C258.8 674.5 258.1 673.5 257 672.5C254.1 669.9 254.5 668.9 258 670.1C259.7 670.7 261 671.5 261 671.9C261 672.2 258.8 677 256.1 682.5C253.4 688 251.4 692.7 251.6 692.9C252.5 693.9 256 689.4 258.2 684.4C260.4 679.2 262 677.5 262 680.3C262 681.6 260.2 686 258.1 690C257.6 690.9 256.9 693 256.6 694.7C255.7 698.4 252.7 704.5 250.4 707.1C248.9 708.7 248.9 709.8 250 717.7C250.7 722.5 251.6 726.9 252 727.5C252.4 728 253.1 733 253.5 738.4C253.9 743.9 254.7 749.1 255.3 750C256.6 752.2 255.5 756.5 253 759C251.9 760.1 250.8 762.1 250.4 763.6C250 765 249 766.4 248.1 766.7C247.2 767 245.8 767.4 245 767.7C244 768 244.6 768.6 246.8 769.7C249.3 770.9 250.6 771 252.3 770.2C253.5 769.7 255.3 768.9 256.3 768.6C257.8 768.1 258.1 767 257.9 761.8C257.8 754.8 258.6 752.2 262.4 747.1C263.8 745.2 265 743.2 265 742.7C265 742.2 266.3 740.1 267.8 738.1C269.3 736.1 271.1 733.4 271.8 732C272.5 730.6 274.1 727.7 275.5 725.5C276.9 723.3 278.5 720.4 279 719C280.3 715.7 286.1 704.8 287.1 703.6C288.5 702.1 292.7 706.8 293.3 710.3C293.6 712.1 293.2 714.8 292.5 716.5C289.4 724 289 725.2 289 727C289 728.1 288.6 729 288.1 729C287.4 729 286.7 730.5 286.2 733.3C286.1 733.7 285.2 735.5 284.3 737.3C283.3 739 282.5 740.9 282.5 741.5C282.5 742 280 747.4 277.1 753.3C274.1 759.2 271.6 765.3 271.5 766.8C271.1 772.5 271.1 772.5 269.8 771.1C268.8 770 268.8 769.7 269.8 769.3C270.4 769 271 768.2 271 767.4C271 764.8 269.5 766 267.6 770.3C263.5 779.3 261.5 783.2 260.9 783.6C260.5 783.8 258 781.9 255.4 779.4C245.5 770.3 243.8 768.9 243.2 769.6C242.8 770 243.1 770.5 243.8 770.7C245.6 771.4 245.3 773.2 242.5 776.5C241.1 778.1 239.3 780.8 238.5 782.5C235.9 787.5 234.7 789.4 230.5 794.6C226.9 798.9 222.5 805 219.5 809.9C218.6 811.4 211.8 820.1 208.4 824.3C207.7 825.2 207 826.3 207 826.6C207 827 204.4 830.2 201.2 833.9C194.5 841.5 191.5 846 193 846C193.6 846 194.4 845.2 194.7 844.2C195.1 843.3 198.4 839.1 202.2 834.9C205.9 830.7 209 827 209 826.5C209 826.1 211 823.3 213.5 820.4C216 817.6 218 814.8 218 814.3C218 813.8 219.6 811.5 221.5 809.3C223.4 807 225 804.8 225 804.4C225 804 226.8 801.5 229 798.9C231.2 796.3 233 793.8 233 793.5C233 793.1 234.5 791 236.3 788.7C238.1 786.4 240.2 783.4 240.8 782C242.5 778.7 244.6 775.1 245.3 774.4C246.3 773.4 251.4 776.8 255.9 781.3C260.1 785.7 260.2 785.9 259 789.4C258.4 791.4 257.4 793.2 256.9 793.5C256.4 793.9 256 794.8 256 795.6C256 798.3 257.9 796 259.2 791.9C260.1 788.7 260.6 788.1 261.4 789.2C262 789.9 263.8 790.7 265.3 790.8C266.8 790.9 269.3 791.9 270.9 793.1L273.7 795.2L266.1 802.3C255.6 812.2 249 818 248.3 818C248 818 245.8 819.6 243.4 821.5C241.1 823.4 238.8 825 238.4 825C238 825 236.8 825.7 235.8 826.7C234.8 827.6 233.8 828.1 233.5 827.8C232.9 827.2 237.2 822.3 250.8 808.1C259.3 799.1 260.6 796.7 256.8 797.4C255.5 797.6 254.6 798.3 254.8 798.9C255.1 800.5 253.3 803 246.6 810C243.5 813.2 241 816.1 241 816.5C241 817.2 238.8 819.7 226.9 832.1C224.4 834.8 222.6 837.2 222.9 837.5C223.2 837.9 222.8 837.8 221.9 837.5C220.5 837 218.9 837.9 212.6 843.1C210.9 844.6 208.4 846.1 207 846.5C205.6 846.9 204.3 847.6 204 847.9C203.7 848.3 200.1 850.3 196 852.3C190.6 854.9 188.3 855.6 187.8 854.7C186.7 853 186.8 851.8 188 852.5C188.6 852.8 189 852.2 189 851.2C189 850.1 189.7 848.9 190.6 848.6C191.6 848.2 191.9 847.3 191.5 846C191.1 844.8 191.3 843.4 191.8 842.7C192.3 842 193.3 839 194 836C194.7 833 195.6 830 196 829.5C196.5 828.9 197.1 826.7 197.5 824.5C197.9 822.3 198.6 820 199 819.5C199.5 818.9 200.1 816.8 200.5 814.7C200.9 812.7 201.6 810.7 202.1 810.5C202.5 810.2 203.2 807.9 203.6 805.3C204 802.8 204.9 799.5 205.6 798.1C206.4 796.7 207 794.9 207 794.2C207 793.5 207.4 792.2 207.9 791.2C208.4 790.3 209.4 786.7 210.1 783.2C210.7 779.8 211.7 776.7 212.1 776.4C212.6 776.1 213 774.8 213 773.5C213 772.2 213.4 770.8 214 770.5C214.5 770.2 215.2 767.7 215.6 765C216 762.2 216.6 760 217.1 760C217.6 760 218 759.3 218 758.5C218 757.7 218.2 757 218.4 757C218.6 757 222.3 758.8 226.5 761C230.7 763.2 234.8 765 235.5 765C236.2 765 237.9 765.9 239.4 767.1C240.8 768.2 242.4 768.8 243 768.5C244.4 767.6 244.2 766 242.7 766C241.9 766 240.4 765 239.3 763.7C237.1 761.3 233 753.1 233 751.2C233 750.5 232.7 750 232.2 750C230.7 750 229 744.2 228.4 736.7C228 732.4 227.3 728.7 226.9 728.4C226.4 728.2 226.5 726.9 227 725.7C228.9 720.7 229.3 719.4 229.1 717.8C229 716.9 229.4 715.9 230 715.5C230.5 715.2 231 713.9 231 712.6C231 711.4 231.4 710 231.9 709.4C232.4 708.9 233.3 705 233.9 700.7C234.5 696.4 235.7 691.8 236.7 690.4C238 688.4 238.1 687.4 237.2 686C236.3 684.6 236.4 683.9 237.7 682.8C239.1 681.7 239.2 681.8 238.6 683.8C238.2 685.1 238.3 686 238.9 686C239.4 686 240.2 685.1 240.5 684C241.2 681.9 243 681.2 243 683C243 683.5 242.6 684 242 684C241.5 684 241 685.2 241 686.6C241 688.8 241.2 689.1 242.5 688C243.8 686.9 243.9 687.2 243.4 689.9C242.7 693.5 243.4 693.9 245 690.9C245.9 689.4 245.8 688.5 244.9 687.4C243.5 685.7 243.1 675.2 244.5 674.2C246.4 672.9 248 669.1 247 668.5C246.4 668.1 245.3 669.4 244.5 671.4C243.7 673.3 242.6 675.1 242 675.5C241.5 675.8 241 677.1 241 678.3C241 679.8 240.7 680.1 239.9 679.3C239.1 678.5 239.1 677.6 239.9 676.2C240.5 675.1 241 672.1 241 669.6C241 665.4 241.8 664.2 244.5 664.2C245.1 664.2 244.9 664.4 244.3 664.7ZM271.7 673.5C275 673.5 277.6 673.8 277.3 674.3C277.1 674.7 277.5 675.3 278.3 675.6C279.1 675.9 280.3 677.9 281 680.1C281.7 682.2 282.7 684 283.2 684C283.6 684 284 684.7 284 685.5C284 686.3 283.8 687 283.6 687C283.4 687 280.4 684.1 276.9 680.5C273.5 676.9 270.2 674 269.6 674C269 674 271.4 676.9 275 680.5C278.5 684 281.1 687.2 280.7 687.6C279.9 688.5 268 677.1 268 675.3C268 674.6 267.6 674 267 674C266.5 674 266 674.4 266 674.9C266 676.4 278.7 688.8 281 689.5C282.1 689.8 283 690.6 283 691.1C283 691.6 283.4 692 284 692C285.5 692 289 695.3 289 696.7C289 699.3 286.6 697.9 278.5 690.5C274 686.4 269.9 683 269.5 683C269 683 267.8 682.2 266.8 681.3C265 679.7 265 679.7 265.6 681.3C265.9 682.2 266.6 683 267 683C267.4 683 270 685 272.8 687.5C275.5 690 278 692 278.3 692C278.5 692 280.6 693.7 282.9 695.9L287 699.8L282.3 709.1C279.7 714.3 277.3 718.7 276.9 719C276.6 719.3 275.8 721 275.2 722.7C274.6 724.5 273.1 727.5 271.8 729.2C270.5 731 268.9 733.4 268.3 734.5C267.6 735.6 265.6 738.9 263.8 741.8C262 744.8 260 748 259.4 749C257.4 752.5 256.2 749.5 255.5 739C255.1 733.2 254.4 728 254 727.5C253.6 726.9 253 724.1 252.6 721.2C252.2 718.2 251.4 715 250.7 713.9C249.8 712.4 249.8 711.6 250.8 710.2C251.5 709.3 252.3 707.7 252.6 706.7C253 705.8 253.6 705 254.1 705C254.6 705 255 704.4 255 703.7C255.1 703.1 255.9 700.7 257 698.5C258.1 696.3 258.9 693.5 259 692.2C259 691 259.4 690 259.9 690C260.4 690 261.2 688.5 261.5 686.7C261.9 685 262.9 682.6 263.6 681.5C265.2 679.2 265.4 674.4 264 673.5C263.4 673.1 263.3 672.4 263.7 671.7C264.1 671 264.5 671.1 264.9 672.1C265.3 673.1 267.2 673.5 271.7 673.5ZM108.7 679.5C113 683.1 117.1 686.5 117.9 687.2C118.6 687.8 122 690.6 125.4 693.5C128.7 696.3 132.3 698.9 133.3 699.3C135.8 700.2 135.4 701.2 131.2 704C129.2 705.4 127.3 706.7 127 707C126.7 707.3 124.7 708.4 122.5 709.5C120.3 710.6 115.1 713.4 111 715.7C102.3 720.5 97.4 721.7 94.6 719.6C93 718.3 92.7 716.5 92.7 703.8C92.6 689.7 93.4 683 95.1 683C95.6 683 96 682.1 96 680.9C96 678.7 99 673 100.1 673C100.5 673 104.3 675.9 108.7 679.5ZM290 678C290.3 678.4 293.1 679 296.3 679.4C303.8 680.2 306.1 681.6 305.4 685C304.8 687.5 303 692 300.3 697.2C299.6 698.6 299 700.8 299 701.9C299 703.1 298.6 704 298.1 704C297.6 704 297 705 296.7 706.2C295.8 709.4 293.4 706.9 292.6 702C292.3 699.8 291.5 698 291 698C290.5 698 290.3 699.5 290.6 701.2C291 704 291 704.2 290 702.7C289.3 701.7 289.1 699.8 289.4 698.5C290 696.3 288.5 692.1 283.7 682C282.5 679.5 281.4 677.2 281.2 676.7C280.7 675.8 289.3 677 290 678ZM285.4 687.9C286.3 689.2 283.5 690 281.9 688.8C280.8 688 280.9 687.9 282.3 688.4C283.2 688.7 284 688.5 284 688C284 686.8 284.7 686.7 285.4 687.9ZM188.2 691.5C188 693.4 187.4 695 186.9 695C186.4 695 186 696.5 186 698.4C186 700.3 185.6 702.2 185 702.5C184.5 702.8 184.3 704.4 184.7 706C185 707.7 184.7 709.6 184.1 710.4C183.4 711.3 182.8 716 182.7 722.3C182.5 731.1 182.3 732.7 181 732.2C180.2 731.9 179.3 731.4 179 731C178.7 730.7 174.5 727.8 169.5 724.5C164.6 721.3 160.3 718.4 160.1 718.3C159.8 718.1 162 715.6 164.8 712.7C167.7 709.8 170 707.1 170 706.8C170 706.2 187.8 688 188.4 688C188.5 688 188.4 689.6 188.2 691.5ZM232 702.5C232 703.3 231.6 704 231 704C230.5 704 230 705 230 706.2C230.1 708.7 227.9 720.2 227.3 721C226.3 722.2 225 718 225 713.4C225 709.4 225.6 707.6 227.8 704.7C230.7 700.8 232 700.1 232 702.5ZM151.9 714.2L157 718.4L153.3 722.2C151.3 724.3 149.3 726 148.9 726C148.5 726 147.9 723.5 147.5 720.5C147.2 717.5 146.4 714.8 145.9 714.5C144.8 713.7 144.7 710 145.9 710C146.3 710 149 711.9 151.9 714.2ZM299.6 715.6C301.2 717.9 301.2 718.2 299.7 719.8C297.7 721.8 297.1 721.2 296.3 716.6C295.6 712.3 297.2 711.8 299.6 715.6ZM296.3 724.6C296.8 727.8 297.5 730.9 298 731.5C298.4 732 299.1 734.9 299.5 737.7C299.9 740.6 300.6 743.2 301.1 743.6C303.3 744.9 301.8 748.8 297.5 753C295 755.4 293 757.8 293 758.3C293 758.7 290.1 762.1 286.5 765.8C282.9 769.4 280 772.7 280 773.1C280 773.5 277.3 776.4 274 779.6C270.7 782.7 268 785.9 268 786.7C268 787.4 267.3 788 266.5 788C264.4 788 264.6 786 267.3 782C268.6 780.1 270.2 776.4 271 773.7C271.7 771.1 272.7 769 273.1 769C273.6 769 274 768.3 274 767.4C274 766.5 274.6 764.4 275.4 762.7C278.7 755.3 282.2 748.3 284 745.5C285.1 743.8 286.3 741.7 286.6 740.7C287 739.8 287.6 739 288.1 739C288.6 739 289 738.5 289 737.9C289 737.4 290.6 734.8 292.5 732.3C294.4 729.8 296 727.2 296 726.6C295.9 725.1 290.1 732.2 290 733.8C290 734.5 289.4 735.3 288.6 735.6C287.8 735.9 286.8 737.5 286.5 739.1C286.1 740.7 285.4 742 284.9 742C283.7 742 283.7 740.3 284.9 739.6C285.4 739.3 286.1 737.8 286.4 736.3C286.8 734.7 287.7 732.1 288.5 730.5C291.5 724 293 720.1 293 719C293 718.4 293.6 718 294.3 718.2C294.9 718.5 295.9 721.3 296.3 724.6ZM304.6 724.9C305.6 727.2 306.8 729 307.3 729C307.7 729 308 729.5 308 730C308 730.6 309 732.4 310.1 734L312.3 736.9L308.4 741.3C303.8 746.6 302.5 746 301.5 737.7C301.1 734.5 300.4 732 299.9 732C298.5 732 298.8 721.2 300.3 720.7C302 720.1 302.4 720.4 304.6 724.9ZM151.1 740.4C151.6 741 152 742.5 152 743.9C152 745.4 152.7 747.8 153.5 749.4C154.3 750.9 155 753.3 155 754.6C155 755.8 155.4 757.1 155.9 757.4C156.4 757.7 157.3 763.3 158 769.7C158.6 776.2 159.6 782.4 160 783.5C160.5 784.6 161.2 789.1 161.5 793.5C161.9 797.9 162.6 801.9 163 802.5C163.4 803 164.1 807.1 164.5 811.5C164.9 815.9 165.6 819.9 166 820.5C166.4 821 167.1 825.1 167.5 829.5C167.9 833.9 168.5 837.9 169 838.5C169.4 839 170.1 842.4 170.4 846C170.8 849.6 171.5 852.9 172 853.5C172.4 854 173.1 856.6 173.5 859.1L174.2 863.8L166.8 864.5C162.8 864.9 159.1 865.6 158.5 866C158 866.4 153.8 867.1 149.2 867.5C144.7 867.9 140.7 868.6 140.4 869.1C139.7 870.2 133.3 870.3 132.6 869.1C132.3 868.7 129.6 868 126.6 867.7C122.2 867.3 120 866.3 114.9 862.6C109.8 858.9 108.1 856.9 105.7 851.8C102.9 845.7 102.8 845 102.7 828.9C102.6 818 102.9 811.8 103.6 810.9C104.2 810.1 105 807.2 105.4 804.3C105.8 801.5 106.7 797.9 107.5 796.3C108.3 794.8 109 792.9 109 792.2C109 791.6 109.4 791 109.9 791C110.4 791 111.1 789.8 111.5 788.3C111.8 786.8 112.5 785.3 112.8 785C113.5 784.5 116.9 777.9 118.9 773C119.5 771.6 121.3 768.2 123 765.5C124.6 762.7 126.4 759.5 126.9 758.3C127.5 757.1 128.8 755.5 130 754.8C131.1 754.1 132 753 132 752.4C132 751.8 132.9 750.5 134 749.5C135.1 748.5 136 747.1 136 746.3C136 745.6 136.4 745 136.9 745C137.4 745 138.6 743.7 139.7 742.2C140.7 740.6 143.1 737.2 145 734.6L148.5 729.8L149.3 734.7C149.8 737.3 150.5 739.9 151.1 740.4ZM315 744C315 744.9 315.4 746 315.9 746.5C316.4 747.1 317 749.1 317.4 751.2C318 754.5 317.7 755.2 313.5 759.5C309 764.3 305.6 765.1 306.7 761.2C306.9 760.1 306.7 758.9 306.1 758.6C305.5 758.2 305 756 304.9 753.7C304.9 749.9 304.8 749.7 303.8 751.8C302.9 753.5 302.9 755 303.8 757.4C306.2 763.9 305.5 766 298.8 772.7C295.4 776.2 292.2 779 291.9 779C291.5 779 287.7 782.4 283.4 786.6L275.7 794.2L272.1 792.2C270.1 791 268.4 789.7 268.2 789.1C268 788.6 270.8 785 274.4 781.2C278 777.4 281 773.9 281 773.5C281 773.1 284.2 769.8 288 766.2C291.9 762.6 295 759.3 295 758.8C295 758.2 298.9 753.6 303.7 748.5C311.4 740.3 312.6 739.4 313.7 740.9C314.4 741.8 315 743.2 315 744ZM320.3 772.9C320.4 781.6 320.1 786.3 319.4 786.8C318.8 787.2 318 789.6 317.6 792.2C317.2 794.9 316.5 797 316.1 797C315.6 797 315 797.9 314.7 799C314.4 800.1 313.7 801 313.2 801C312.1 801 311.4 797.3 310.4 785.5C310.1 781.1 309.5 777 309 776.5C307.9 775.1 307.1 766 308 766C308.5 766 310.8 764 313.2 761.5C319.4 755.1 320.2 756.3 320.3 772.9ZM256 762.6C256 766.5 254 768.9 250.8 769C248.5 769 248.6 768.4 250.8 765.2C251.8 763.7 253 761.7 253.3 760.7C254.4 757.7 256 758.8 256 762.6ZM307 776.5C307.5 777.1 308.2 781.7 308.6 786.8C309 791.9 309.7 796.3 310.1 796.6C311.4 797.4 311.2 802.4 309.8 803.8C308.4 805.2 305.7 805.3 303.2 804.1C299.3 802.1 296.2 801.1 291 800C286.3 799 278.6 796.4 277.1 795.3C276.4 794.8 290.3 781 291.5 781C292.1 781 295.5 778.1 299 774.5L305.5 767.9L305.8 771.7C306 773.8 306.5 775.9 307 776.5ZM268.5 774.7C267.6 778.8 264 786 262.9 786C261.7 786 261.7 786 264 781.5C265.1 779.3 266 777 266 776.3C266 775.6 266.5 775 267 775C267.6 775 268 774.3 268 773.5C268 772.7 268.3 772 268.6 772C268.9 772 268.9 773.2 268.5 774.7ZM186.1 857.3C184.8 858.6 183.5 857.6 184.5 856.1C184.8 855.5 185.6 855.3 186.2 855.6C186.8 856 186.8 856.6 186.1 857.3Z" fill="black"/>
<path d="M335 627.7C336.9 628 339 628.5 339.5 629C340.1 629.5 343 630.2 346 630.6C349 631 352 631.6 352.5 632C353.1 632.5 355.8 633.1 358.5 633.5C361.3 633.9 364 634.5 364.5 634.8C365.1 635.2 366 635.6 366.5 635.7C378.5 638.6 383 639.3 383 638.2C383 637 373.3 633.7 372 634.5C371.5 634.8 367.6 634.2 363.5 633.1C359.4 631.9 355.1 631 354 631C352.9 631 352 630.6 352 630.2C352 629.4 336.8 626.9 333.4 627.2C332.4 627.2 333.1 627.5 335 627.7Z" fill="black"/>
<path d="M382.8 664.7C383.5 665 384.4 664.9 384.7 664.6C385.1 664.3 384.5 664 383.4 664.1C382.3 664.1 382 664.4 382.8 664.7Z" fill="black"/>
<path d="M38.2 604.1C36.4 605.7 34.3 607 33.5 607C32.7 607 32 607.4 32 608C32 609.3 32.6 609.3 35.8 607.6C38.7 606.1 42.6 602.3 41.9 601.6C41.7 601.4 40 602.5 38.2 604.1Z" fill="black"/>
<path d="M162.9 636.6C165.9 637.9 169.4 639.3 170.7 639.6C172 640 173 640.6 173 641C173 641.4 175.1 642.3 177.8 642.9C183.3 644.3 188 646.2 188 647.1C188 647.5 189.8 648 191.9 648.4C194.1 648.7 196.7 649.3 197.7 649.6C199.3 650.2 199.2 650.1 197.5 648.8C196.4 647.9 193.9 646.9 192 646.5C190.1 646.1 187.6 645.1 186.5 644.4C185.4 643.6 183.5 643 182.3 643C181 643 180 642.6 180 642.1C180 641.6 178.4 640.9 176.5 640.6C174.6 640.2 173 639.5 173 639C173 638.6 171.6 637.9 169.9 637.5C168.2 637.1 165.7 636.2 164.2 635.4C162.7 634.6 160.6 634 159.5 634.1C158.4 634.1 159.8 635.2 162.9 636.6Z" fill="black"/>
<path d="M244.6 693.6C244.3 694.4 244.5 696 245 697.1C245.6 698.2 245.8 699.5 245.5 700C245.2 700.5 245.4 701.1 246 701.5C246.5 701.8 247 703.4 247 705.1C247 708.2 248.4 709 249.4 706.4C250.2 704.4 249.1 698.2 247.9 697.4C247.4 697.1 247 695.8 247 694.4C247 691.7 245.5 691.2 244.6 693.6Z" fill="black"/>
<path d="M259.6 793.6C258.7 796.9 259 797.2 261.4 795.5C262.5 794.7 263 793.4 262.7 792.5C261.8 790.2 260.3 790.7 259.6 793.6Z" fill="black"/>
<path d="M294.6 684.4C293.5 686.6 292.3 688.7 291.9 689C291.5 689.3 290.9 690.9 290.5 692.5C289.9 695.4 289.9 695.4 291.4 693.6C292.3 692.5 293 691 293 690.3C293 689.6 293.5 689 294 689C294.6 689 295 688.4 295 687.7C295 687.1 295.7 685.3 296.4 683.8C297.2 682.3 297.6 680.9 297.2 680.6C296.8 680.4 295.6 682.1 294.6 684.4Z" fill="black"/>
</svg>
